%TF.GenerationSoftware,KiCad,Pcbnew,8.0.5*%
%TF.CreationDate,2024-09-18T17:55:33-04:00*%
%TF.ProjectId,cadence sensor,63616465-6e63-4652-9073-656e736f722e,rev?*%
%TF.SameCoordinates,Original*%
%TF.FileFunction,Soldermask,Top*%
%TF.FilePolarity,Negative*%
%FSLAX46Y46*%
G04 Gerber Fmt 4.6, Leading zero omitted, Abs format (unit mm)*
G04 Created by KiCad (PCBNEW 8.0.5) date 2024-09-18 17:55:33*
%MOMM*%
%LPD*%
G01*
G04 APERTURE LIST*
G04 Aperture macros list*
%AMRoundRect*
0 Rectangle with rounded corners*
0 $1 Rounding radius*
0 $2 $3 $4 $5 $6 $7 $8 $9 X,Y pos of 4 corners*
0 Add a 4 corners polygon primitive as box body*
4,1,4,$2,$3,$4,$5,$6,$7,$8,$9,$2,$3,0*
0 Add four circle primitives for the rounded corners*
1,1,$1+$1,$2,$3*
1,1,$1+$1,$4,$5*
1,1,$1+$1,$6,$7*
1,1,$1+$1,$8,$9*
0 Add four rect primitives between the rounded corners*
20,1,$1+$1,$2,$3,$4,$5,0*
20,1,$1+$1,$4,$5,$6,$7,0*
20,1,$1+$1,$6,$7,$8,$9,0*
20,1,$1+$1,$8,$9,$2,$3,0*%
%AMFreePoly0*
4,1,19,0.500000,-0.750000,0.000000,-0.750000,0.000000,-0.744911,-0.071157,-0.744911,-0.207708,-0.704816,-0.327430,-0.627875,-0.420627,-0.520320,-0.479746,-0.390866,-0.500000,-0.250000,-0.500000,0.250000,-0.479746,0.390866,-0.420627,0.520320,-0.327430,0.627875,-0.207708,0.704816,-0.071157,0.744911,0.000000,0.744911,0.000000,0.750000,0.500000,0.750000,0.500000,-0.750000,0.500000,-0.750000,
$1*%
%AMFreePoly1*
4,1,19,0.000000,0.744911,0.071157,0.744911,0.207708,0.704816,0.327430,0.627875,0.420627,0.520320,0.479746,0.390866,0.500000,0.250000,0.500000,-0.250000,0.479746,-0.390866,0.420627,-0.520320,0.327430,-0.627875,0.207708,-0.704816,0.071157,-0.744911,0.000000,-0.744911,0.000000,-0.750000,-0.500000,-0.750000,-0.500000,0.750000,0.000000,0.750000,0.000000,0.744911,0.000000,0.744911,
$1*%
G04 Aperture macros list end*
%ADD10C,0.010000*%
%ADD11RoundRect,0.250000X0.625000X-0.375000X0.625000X0.375000X-0.625000X0.375000X-0.625000X-0.375000X0*%
%ADD12RoundRect,0.250000X-0.375000X-0.625000X0.375000X-0.625000X0.375000X0.625000X-0.375000X0.625000X0*%
%ADD13RoundRect,0.250000X0.625000X-0.312500X0.625000X0.312500X-0.625000X0.312500X-0.625000X-0.312500X0*%
%ADD14RoundRect,0.250000X-0.700000X0.275000X-0.700000X-0.275000X0.700000X-0.275000X0.700000X0.275000X0*%
%ADD15RoundRect,0.200000X-0.200000X-0.800000X0.200000X-0.800000X0.200000X0.800000X-0.200000X0.800000X0*%
%ADD16RoundRect,0.250000X0.650000X-0.325000X0.650000X0.325000X-0.650000X0.325000X-0.650000X-0.325000X0*%
%ADD17RoundRect,0.250000X-0.325000X-0.650000X0.325000X-0.650000X0.325000X0.650000X-0.325000X0.650000X0*%
%ADD18RoundRect,0.250000X0.312500X0.625000X-0.312500X0.625000X-0.312500X-0.625000X0.312500X-0.625000X0*%
%ADD19R,0.600000X1.000000*%
%ADD20R,0.600000X1.100000*%
%ADD21C,0.700000*%
%ADD22R,1.000000X0.600000*%
%ADD23RoundRect,0.225000X0.225000X0.375000X-0.225000X0.375000X-0.225000X-0.375000X0.225000X-0.375000X0*%
%ADD24RoundRect,0.250000X-0.625000X0.312500X-0.625000X-0.312500X0.625000X-0.312500X0.625000X0.312500X0*%
%ADD25RoundRect,0.250000X-0.312500X-0.625000X0.312500X-0.625000X0.312500X0.625000X-0.312500X0.625000X0*%
%ADD26RoundRect,0.250000X0.325000X0.650000X-0.325000X0.650000X-0.325000X-0.650000X0.325000X-0.650000X0*%
%ADD27C,2.000000*%
%ADD28RoundRect,0.250000X-0.275000X-0.700000X0.275000X-0.700000X0.275000X0.700000X-0.275000X0.700000X0*%
%ADD29RoundRect,0.250000X-0.750000X0.600000X-0.750000X-0.600000X0.750000X-0.600000X0.750000X0.600000X0*%
%ADD30O,2.000000X1.700000*%
%ADD31FreePoly0,0.000000*%
%ADD32FreePoly1,0.000000*%
%ADD33C,0.650000*%
%ADD34RoundRect,0.150000X-0.425000X0.150000X-0.425000X-0.150000X0.425000X-0.150000X0.425000X0.150000X0*%
%ADD35RoundRect,0.075000X-0.500000X0.075000X-0.500000X-0.075000X0.500000X-0.075000X0.500000X0.075000X0*%
%ADD36RoundRect,0.250000X-0.750000X0.840000X-0.750000X-0.840000X0.750000X-0.840000X0.750000X0.840000X0*%
%ADD37RoundRect,0.102000X-0.750000X-0.450000X0.750000X-0.450000X0.750000X0.450000X-0.750000X0.450000X0*%
%ADD38RoundRect,0.102000X-0.450000X-0.750000X0.450000X-0.750000X0.450000X0.750000X-0.450000X0.750000X0*%
%ADD39RoundRect,0.102000X-0.450000X-0.450000X0.450000X-0.450000X0.450000X0.450000X-0.450000X0.450000X0*%
%ADD40RoundRect,0.062500X-0.375000X-0.062500X0.375000X-0.062500X0.375000X0.062500X-0.375000X0.062500X0*%
%ADD41RoundRect,0.062500X-0.062500X-0.375000X0.062500X-0.375000X0.062500X0.375000X-0.062500X0.375000X0*%
%ADD42R,2.000000X2.000000*%
%ADD43RoundRect,0.075000X0.200000X-0.075000X0.200000X0.075000X-0.200000X0.075000X-0.200000X-0.075000X0*%
G04 APERTURE END LIST*
D10*
%TO.C,MT1*%
X46725000Y-70937500D02*
X46150000Y-70937500D01*
X46150000Y-70587500D01*
X46725000Y-70587500D01*
X46725000Y-70937500D01*
G36*
X46725000Y-70937500D02*
G01*
X46150000Y-70937500D01*
X46150000Y-70587500D01*
X46725000Y-70587500D01*
X46725000Y-70937500D01*
G37*
X46725000Y-71437500D02*
X46150000Y-71437500D01*
X46150000Y-71087500D01*
X46725000Y-71087500D01*
X46725000Y-71437500D01*
G36*
X46725000Y-71437500D02*
G01*
X46150000Y-71437500D01*
X46150000Y-71087500D01*
X46725000Y-71087500D01*
X46725000Y-71437500D01*
G37*
X46725000Y-71937500D02*
X46150000Y-71937500D01*
X46150000Y-71587500D01*
X46725000Y-71587500D01*
X46725000Y-71937500D01*
G36*
X46725000Y-71937500D02*
G01*
X46150000Y-71937500D01*
X46150000Y-71587500D01*
X46725000Y-71587500D01*
X46725000Y-71937500D01*
G37*
X46775000Y-70387500D02*
X46425000Y-70387500D01*
X46425000Y-69812500D01*
X46775000Y-69812500D01*
X46775000Y-70387500D01*
G36*
X46775000Y-70387500D02*
G01*
X46425000Y-70387500D01*
X46425000Y-69812500D01*
X46775000Y-69812500D01*
X46775000Y-70387500D01*
G37*
X46775000Y-72712500D02*
X46425000Y-72712500D01*
X46425000Y-72137500D01*
X46775000Y-72137500D01*
X46775000Y-72712500D01*
G36*
X46775000Y-72712500D02*
G01*
X46425000Y-72712500D01*
X46425000Y-72137500D01*
X46775000Y-72137500D01*
X46775000Y-72712500D01*
G37*
X47275000Y-70387500D02*
X46925000Y-70387500D01*
X46925000Y-69812500D01*
X47275000Y-69812500D01*
X47275000Y-70387500D01*
G36*
X47275000Y-70387500D02*
G01*
X46925000Y-70387500D01*
X46925000Y-69812500D01*
X47275000Y-69812500D01*
X47275000Y-70387500D01*
G37*
X47275000Y-72712500D02*
X46925000Y-72712500D01*
X46925000Y-72137500D01*
X47275000Y-72137500D01*
X47275000Y-72712500D01*
G36*
X47275000Y-72712500D02*
G01*
X46925000Y-72712500D01*
X46925000Y-72137500D01*
X47275000Y-72137500D01*
X47275000Y-72712500D01*
G37*
X47775000Y-70387500D02*
X47425000Y-70387500D01*
X47425000Y-69812500D01*
X47775000Y-69812500D01*
X47775000Y-70387500D01*
G36*
X47775000Y-70387500D02*
G01*
X47425000Y-70387500D01*
X47425000Y-69812500D01*
X47775000Y-69812500D01*
X47775000Y-70387500D01*
G37*
X47775000Y-72712500D02*
X47425000Y-72712500D01*
X47425000Y-72137500D01*
X47775000Y-72137500D01*
X47775000Y-72712500D01*
G36*
X47775000Y-72712500D02*
G01*
X47425000Y-72712500D01*
X47425000Y-72137500D01*
X47775000Y-72137500D01*
X47775000Y-72712500D01*
G37*
X48275000Y-70387500D02*
X47925000Y-70387500D01*
X47925000Y-69812500D01*
X48275000Y-69812500D01*
X48275000Y-70387500D01*
G36*
X48275000Y-70387500D02*
G01*
X47925000Y-70387500D01*
X47925000Y-69812500D01*
X48275000Y-69812500D01*
X48275000Y-70387500D01*
G37*
X48275000Y-72712500D02*
X47925000Y-72712500D01*
X47925000Y-72137500D01*
X48275000Y-72137500D01*
X48275000Y-72712500D01*
G36*
X48275000Y-72712500D02*
G01*
X47925000Y-72712500D01*
X47925000Y-72137500D01*
X48275000Y-72137500D01*
X48275000Y-72712500D01*
G37*
X48550000Y-70937500D02*
X47975000Y-70937500D01*
X47975000Y-70587500D01*
X48550000Y-70587500D01*
X48550000Y-70937500D01*
G36*
X48550000Y-70937500D02*
G01*
X47975000Y-70937500D01*
X47975000Y-70587500D01*
X48550000Y-70587500D01*
X48550000Y-70937500D01*
G37*
X48550000Y-71437500D02*
X47975000Y-71437500D01*
X47975000Y-71087500D01*
X48550000Y-71087500D01*
X48550000Y-71437500D01*
G36*
X48550000Y-71437500D02*
G01*
X47975000Y-71437500D01*
X47975000Y-71087500D01*
X48550000Y-71087500D01*
X48550000Y-71437500D01*
G37*
X48550000Y-71937500D02*
X47975000Y-71937500D01*
X47975000Y-71587500D01*
X48550000Y-71587500D01*
X48550000Y-71937500D01*
G36*
X48550000Y-71937500D02*
G01*
X47975000Y-71937500D01*
X47975000Y-71587500D01*
X48550000Y-71587500D01*
X48550000Y-71937500D01*
G37*
%TD*%
D11*
%TO.C,D4*%
X51700000Y-70770000D03*
X51700000Y-67970000D03*
%TD*%
D12*
%TO.C,D3*%
X53800000Y-66770000D03*
X56600000Y-66770000D03*
%TD*%
D13*
%TO.C,ROUT1*%
X58050000Y-107100000D03*
X58050000Y-104175000D03*
%TD*%
D14*
%TO.C,L3*%
X57750000Y-94685000D03*
X57750000Y-97835000D03*
%TD*%
D15*
%TO.C,SW1*%
X54900000Y-72200000D03*
X59100000Y-72200000D03*
%TD*%
D16*
%TO.C,C5*%
X43700000Y-69865000D03*
X43700000Y-66915000D03*
%TD*%
D17*
%TO.C,C10*%
X45725000Y-67600000D03*
X48675000Y-67600000D03*
%TD*%
%TO.C,C1*%
X55900000Y-87500000D03*
X58850000Y-87500000D03*
%TD*%
D18*
%TO.C,ROV2*%
X55712500Y-100825000D03*
X52787500Y-100825000D03*
%TD*%
%TO.C,R6*%
X53362500Y-80000000D03*
X50437500Y-80000000D03*
%TD*%
D19*
%TO.C,SW2*%
X59143000Y-82550000D03*
D20*
X59143000Y-75350000D03*
D21*
X58000000Y-80400000D03*
X58000000Y-77500000D03*
D20*
X56857000Y-82550000D03*
D19*
X56857000Y-75350000D03*
D22*
X56150000Y-81150000D03*
X56150000Y-78250000D03*
X56150000Y-76750000D03*
%TD*%
D23*
%TO.C,D7*%
X53550000Y-82300000D03*
X50250000Y-82300000D03*
%TD*%
D24*
%TO.C,ROV1*%
X55250000Y-102825000D03*
X55250000Y-105750000D03*
%TD*%
D17*
%TO.C,C12*%
X45875000Y-91100000D03*
X48825000Y-91100000D03*
%TD*%
D16*
%TO.C,C3*%
X41400000Y-69655000D03*
X41400000Y-66705000D03*
%TD*%
D25*
%TO.C,R5*%
X50137500Y-75100000D03*
X53062500Y-75100000D03*
%TD*%
D18*
%TO.C,R7*%
X53062500Y-72800000D03*
X50137500Y-72800000D03*
%TD*%
D16*
%TO.C,C8*%
X53737500Y-90175000D03*
X53737500Y-87225000D03*
%TD*%
D26*
%TO.C,C4*%
X44200000Y-71905000D03*
X41250000Y-71905000D03*
%TD*%
%TO.C,C15*%
X58825000Y-92500000D03*
X55875000Y-92500000D03*
%TD*%
D27*
%TO.C,TP2*%
X43200000Y-94400000D03*
%TD*%
D13*
%TO.C,R8*%
X58600000Y-69595000D03*
X58600000Y-66670000D03*
%TD*%
D25*
%TO.C,R9*%
X50037500Y-106810000D03*
X52962500Y-106810000D03*
%TD*%
D26*
%TO.C,C9*%
X53575000Y-77700000D03*
X50625000Y-77700000D03*
%TD*%
D28*
%TO.C,L2*%
X51025000Y-92200000D03*
X54175000Y-92200000D03*
%TD*%
D23*
%TO.C,D5*%
X53550000Y-84650000D03*
X50250000Y-84650000D03*
%TD*%
D29*
%TO.C,J2*%
X48250000Y-76050000D03*
D30*
X48250000Y-78550000D03*
%TD*%
D24*
%TO.C,ROUT2*%
X57800000Y-99600000D03*
X57800000Y-102525000D03*
%TD*%
D31*
%TO.C,JP1*%
X56000000Y-84650000D03*
D32*
X57300000Y-84650000D03*
%TD*%
D33*
%TO.C,J1*%
X46250000Y-99910000D03*
X46250000Y-105690000D03*
D34*
X47325000Y-99600000D03*
X47325000Y-100400000D03*
D35*
X47325000Y-101550000D03*
X47325000Y-102550000D03*
X47325000Y-103050000D03*
X47325000Y-104050000D03*
D34*
X47325000Y-105200000D03*
X47325000Y-106000000D03*
X47325000Y-106000000D03*
X47325000Y-105200000D03*
D35*
X47325000Y-104550000D03*
X47325000Y-103550000D03*
X47325000Y-102050000D03*
X47325000Y-101050000D03*
D34*
X47325000Y-100400000D03*
X47325000Y-99600000D03*
D36*
X46750000Y-97690000D03*
X42820000Y-97690000D03*
X46750000Y-107910000D03*
X42820000Y-107910000D03*
%TD*%
D29*
%TO.C,J4*%
X48250000Y-84450000D03*
D30*
X48250000Y-86950000D03*
%TD*%
D37*
%TO.C,U1*%
X41250000Y-46450000D03*
X41250000Y-47720000D03*
X41250000Y-48990000D03*
X41250000Y-50260000D03*
X41250000Y-51530000D03*
X41250000Y-52800000D03*
X41250000Y-54070000D03*
X41250000Y-55340000D03*
X41250000Y-56610000D03*
X41250000Y-57880000D03*
X41250000Y-59150000D03*
X41250000Y-60420000D03*
X41250000Y-61690000D03*
X41250000Y-62960000D03*
D38*
X43015000Y-64210000D03*
X44285000Y-64210000D03*
X45555000Y-64210000D03*
X46825000Y-64210000D03*
X48095000Y-64210000D03*
X49365000Y-64210000D03*
X50635000Y-64210000D03*
X51905000Y-64210000D03*
X53175000Y-64210000D03*
X54445000Y-64210000D03*
X55715000Y-64210000D03*
X56985000Y-64210000D03*
D37*
X58750000Y-62960000D03*
X58750000Y-61690000D03*
X58750000Y-60420000D03*
X58750000Y-59150000D03*
X58750000Y-57880000D03*
X58750000Y-56610000D03*
X58750000Y-55340000D03*
X58750000Y-54070000D03*
X58750000Y-52800000D03*
X58750000Y-51530000D03*
X58750000Y-50260000D03*
X58750000Y-48990000D03*
X58750000Y-47720000D03*
X58750000Y-46450000D03*
D39*
X48500000Y-54170000D03*
X47100000Y-54170000D03*
X49900000Y-54170000D03*
X47100000Y-55570000D03*
X48500000Y-55570000D03*
X49900000Y-55570000D03*
X47100000Y-52770000D03*
X48500000Y-52770000D03*
X49900000Y-52770000D03*
%TD*%
D17*
%TO.C,C11*%
X46450000Y-93500000D03*
X49400000Y-93500000D03*
%TD*%
D26*
%TO.C,C2*%
X56650000Y-69300000D03*
X53700000Y-69300000D03*
%TD*%
%TO.C,C14*%
X58825000Y-90000000D03*
X55875000Y-90000000D03*
%TD*%
D16*
%TO.C,C13*%
X50000000Y-98485000D03*
X50000000Y-95535000D03*
%TD*%
D27*
%TO.C,TP1*%
X42000000Y-91600000D03*
%TD*%
D40*
%TO.C,U7*%
X52193750Y-96300000D03*
X52193750Y-96800000D03*
X52193750Y-97300000D03*
X52193750Y-97800000D03*
X52193750Y-98300000D03*
D41*
X52881250Y-98987500D03*
X53381250Y-98987500D03*
X53881250Y-98987500D03*
X54381250Y-98987500D03*
X54881250Y-98987500D03*
D40*
X55568750Y-98300000D03*
X55568750Y-97800000D03*
X55568750Y-97300000D03*
X55568750Y-96800000D03*
X55568750Y-96300000D03*
D41*
X54881250Y-95612500D03*
X54381250Y-95612500D03*
X53881250Y-95612500D03*
X53381250Y-95612500D03*
X52881250Y-95612500D03*
D42*
X53881250Y-97300000D03*
%TD*%
D43*
%TO.C,U2*%
X49700000Y-102600000D03*
X49700000Y-102100000D03*
X49700000Y-101600000D03*
X49700000Y-101100000D03*
X49700000Y-100600000D03*
X48930000Y-100600000D03*
X48930000Y-101100000D03*
X48930000Y-101600000D03*
X48930000Y-102100000D03*
X48930000Y-102600000D03*
%TD*%
D25*
%TO.C,R4*%
X49250000Y-104410000D03*
X52175000Y-104410000D03*
%TD*%
M02*
