%TF.GenerationSoftware,KiCad,Pcbnew,8.0.5*%
%TF.CreationDate,2024-09-18T17:55:33-04:00*%
%TF.ProjectId,cadence sensor,63616465-6e63-4652-9073-656e736f722e,rev?*%
%TF.SameCoordinates,Original*%
%TF.FileFunction,Copper,L1,Top*%
%TF.FilePolarity,Positive*%
%FSLAX46Y46*%
G04 Gerber Fmt 4.6, Leading zero omitted, Abs format (unit mm)*
G04 Created by KiCad (PCBNEW 8.0.5) date 2024-09-18 17:55:33*
%MOMM*%
%LPD*%
G01*
G04 APERTURE LIST*
G04 Aperture macros list*
%AMRoundRect*
0 Rectangle with rounded corners*
0 $1 Rounding radius*
0 $2 $3 $4 $5 $6 $7 $8 $9 X,Y pos of 4 corners*
0 Add a 4 corners polygon primitive as box body*
4,1,4,$2,$3,$4,$5,$6,$7,$8,$9,$2,$3,0*
0 Add four circle primitives for the rounded corners*
1,1,$1+$1,$2,$3*
1,1,$1+$1,$4,$5*
1,1,$1+$1,$6,$7*
1,1,$1+$1,$8,$9*
0 Add four rect primitives between the rounded corners*
20,1,$1+$1,$2,$3,$4,$5,0*
20,1,$1+$1,$4,$5,$6,$7,0*
20,1,$1+$1,$6,$7,$8,$9,0*
20,1,$1+$1,$8,$9,$2,$3,0*%
%AMFreePoly0*
4,1,19,0.500000,-0.750000,0.000000,-0.750000,0.000000,-0.744911,-0.071157,-0.744911,-0.207708,-0.704816,-0.327430,-0.627875,-0.420627,-0.520320,-0.479746,-0.390866,-0.500000,-0.250000,-0.500000,0.250000,-0.479746,0.390866,-0.420627,0.520320,-0.327430,0.627875,-0.207708,0.704816,-0.071157,0.744911,0.000000,0.744911,0.000000,0.750000,0.500000,0.750000,0.500000,-0.750000,0.500000,-0.750000,
$1*%
%AMFreePoly1*
4,1,19,0.000000,0.744911,0.071157,0.744911,0.207708,0.704816,0.327430,0.627875,0.420627,0.520320,0.479746,0.390866,0.500000,0.250000,0.500000,-0.250000,0.479746,-0.390866,0.420627,-0.520320,0.327430,-0.627875,0.207708,-0.704816,0.071157,-0.744911,0.000000,-0.744911,0.000000,-0.750000,-0.500000,-0.750000,-0.500000,0.750000,0.000000,0.750000,0.000000,0.744911,0.000000,0.744911,
$1*%
G04 Aperture macros list end*
%TA.AperFunction,SMDPad,CuDef*%
%ADD10RoundRect,0.250000X0.625000X-0.375000X0.625000X0.375000X-0.625000X0.375000X-0.625000X-0.375000X0*%
%TD*%
%TA.AperFunction,SMDPad,CuDef*%
%ADD11RoundRect,0.250000X-0.375000X-0.625000X0.375000X-0.625000X0.375000X0.625000X-0.375000X0.625000X0*%
%TD*%
%TA.AperFunction,SMDPad,CuDef*%
%ADD12RoundRect,0.250000X0.625000X-0.312500X0.625000X0.312500X-0.625000X0.312500X-0.625000X-0.312500X0*%
%TD*%
%TA.AperFunction,SMDPad,CuDef*%
%ADD13RoundRect,0.250000X-0.700000X0.275000X-0.700000X-0.275000X0.700000X-0.275000X0.700000X0.275000X0*%
%TD*%
%TA.AperFunction,SMDPad,CuDef*%
%ADD14RoundRect,0.200000X-0.200000X-0.800000X0.200000X-0.800000X0.200000X0.800000X-0.200000X0.800000X0*%
%TD*%
%TA.AperFunction,SMDPad,CuDef*%
%ADD15RoundRect,0.250000X0.650000X-0.325000X0.650000X0.325000X-0.650000X0.325000X-0.650000X-0.325000X0*%
%TD*%
%TA.AperFunction,SMDPad,CuDef*%
%ADD16RoundRect,0.250000X-0.325000X-0.650000X0.325000X-0.650000X0.325000X0.650000X-0.325000X0.650000X0*%
%TD*%
%TA.AperFunction,SMDPad,CuDef*%
%ADD17RoundRect,0.250000X0.312500X0.625000X-0.312500X0.625000X-0.312500X-0.625000X0.312500X-0.625000X0*%
%TD*%
%TA.AperFunction,SMDPad,CuDef*%
%ADD18R,0.600000X1.000000*%
%TD*%
%TA.AperFunction,SMDPad,CuDef*%
%ADD19R,0.600000X1.100000*%
%TD*%
%TA.AperFunction,SMDPad,CuDef*%
%ADD20R,1.000000X0.600000*%
%TD*%
%TA.AperFunction,SMDPad,CuDef*%
%ADD21RoundRect,0.225000X0.225000X0.375000X-0.225000X0.375000X-0.225000X-0.375000X0.225000X-0.375000X0*%
%TD*%
%TA.AperFunction,SMDPad,CuDef*%
%ADD22R,0.250000X0.475000*%
%TD*%
%TA.AperFunction,SMDPad,CuDef*%
%ADD23R,0.475000X0.250000*%
%TD*%
%TA.AperFunction,SMDPad,CuDef*%
%ADD24RoundRect,0.250000X-0.625000X0.312500X-0.625000X-0.312500X0.625000X-0.312500X0.625000X0.312500X0*%
%TD*%
%TA.AperFunction,SMDPad,CuDef*%
%ADD25RoundRect,0.250000X-0.312500X-0.625000X0.312500X-0.625000X0.312500X0.625000X-0.312500X0.625000X0*%
%TD*%
%TA.AperFunction,SMDPad,CuDef*%
%ADD26RoundRect,0.250000X0.325000X0.650000X-0.325000X0.650000X-0.325000X-0.650000X0.325000X-0.650000X0*%
%TD*%
%TA.AperFunction,SMDPad,CuDef*%
%ADD27C,2.000000*%
%TD*%
%TA.AperFunction,SMDPad,CuDef*%
%ADD28RoundRect,0.250000X-0.275000X-0.700000X0.275000X-0.700000X0.275000X0.700000X-0.275000X0.700000X0*%
%TD*%
%TA.AperFunction,ComponentPad*%
%ADD29RoundRect,0.250000X-0.750000X0.600000X-0.750000X-0.600000X0.750000X-0.600000X0.750000X0.600000X0*%
%TD*%
%TA.AperFunction,ComponentPad*%
%ADD30O,2.000000X1.700000*%
%TD*%
%TA.AperFunction,SMDPad,CuDef*%
%ADD31FreePoly0,0.000000*%
%TD*%
%TA.AperFunction,SMDPad,CuDef*%
%ADD32FreePoly1,0.000000*%
%TD*%
%TA.AperFunction,SMDPad,CuDef*%
%ADD33RoundRect,0.150000X-0.425000X0.150000X-0.425000X-0.150000X0.425000X-0.150000X0.425000X0.150000X0*%
%TD*%
%TA.AperFunction,SMDPad,CuDef*%
%ADD34RoundRect,0.075000X-0.500000X0.075000X-0.500000X-0.075000X0.500000X-0.075000X0.500000X0.075000X0*%
%TD*%
%TA.AperFunction,SMDPad,CuDef*%
%ADD35RoundRect,0.250000X-0.750000X0.840000X-0.750000X-0.840000X0.750000X-0.840000X0.750000X0.840000X0*%
%TD*%
%TA.AperFunction,SMDPad,CuDef*%
%ADD36R,1.500000X0.900000*%
%TD*%
%TA.AperFunction,SMDPad,CuDef*%
%ADD37R,0.900000X1.500000*%
%TD*%
%TA.AperFunction,SMDPad,CuDef*%
%ADD38R,0.900000X0.900000*%
%TD*%
%TA.AperFunction,ComponentPad*%
%ADD39C,0.400000*%
%TD*%
%TA.AperFunction,SMDPad,CuDef*%
%ADD40RoundRect,0.062500X-0.375000X-0.062500X0.375000X-0.062500X0.375000X0.062500X-0.375000X0.062500X0*%
%TD*%
%TA.AperFunction,SMDPad,CuDef*%
%ADD41RoundRect,0.062500X-0.062500X-0.375000X0.062500X-0.375000X0.062500X0.375000X-0.062500X0.375000X0*%
%TD*%
%TA.AperFunction,HeatsinkPad*%
%ADD42R,2.000000X2.000000*%
%TD*%
%TA.AperFunction,SMDPad,CuDef*%
%ADD43RoundRect,0.075000X0.200000X-0.075000X0.200000X0.075000X-0.200000X0.075000X-0.200000X-0.075000X0*%
%TD*%
%TA.AperFunction,ViaPad*%
%ADD44C,0.700000*%
%TD*%
%TA.AperFunction,Conductor*%
%ADD45C,0.500000*%
%TD*%
%TA.AperFunction,Conductor*%
%ADD46C,0.300000*%
%TD*%
%TA.AperFunction,Conductor*%
%ADD47C,0.200000*%
%TD*%
G04 APERTURE END LIST*
D10*
%TO.P,D4,1,K*%
%TO.N,Net-(D4-K)*%
X51700000Y-70770000D03*
%TO.P,D4,2,A*%
%TO.N,/LED_R*%
X51700000Y-67970000D03*
%TD*%
D11*
%TO.P,D3,1,K*%
%TO.N,Net-(D3-K)*%
X53800000Y-66770000D03*
%TO.P,D3,2,A*%
%TO.N,/LED_G*%
X56600000Y-66770000D03*
%TD*%
D12*
%TO.P,ROUT1,1*%
%TO.N,GND*%
X58050000Y-107100000D03*
%TO.P,ROUT1,2*%
%TO.N,Net-(U7-VOUT_SET)*%
X58050000Y-104175000D03*
%TD*%
D13*
%TO.P,L3,1,1*%
%TO.N,Net-(U7-LBUCK)*%
X57750000Y-94685000D03*
%TO.P,L3,2,2*%
%TO.N,+3V3*%
X57750000Y-97835000D03*
%TD*%
D14*
%TO.P,SW1,1,1*%
%TO.N,GND*%
X54900000Y-72200000D03*
%TO.P,SW1,2,2*%
%TO.N,Net-(C2-Pad1)*%
X59100000Y-72200000D03*
%TD*%
D15*
%TO.P,C5,1*%
%TO.N,+3V3*%
X43700000Y-69865000D03*
%TO.P,C5,2*%
%TO.N,GND*%
X43700000Y-66915000D03*
%TD*%
D16*
%TO.P,C10,1*%
%TO.N,+3V3*%
X45725000Y-67600000D03*
%TO.P,C10,2*%
%TO.N,GND*%
X48675000Y-67600000D03*
%TD*%
%TO.P,C1,1*%
%TO.N,+BATT*%
X55900000Y-87500000D03*
%TO.P,C1,2*%
%TO.N,GND*%
X58850000Y-87500000D03*
%TD*%
D17*
%TO.P,ROV2,1*%
%TO.N,Net-(U7-VRDIV)*%
X55712500Y-100825000D03*
%TO.P,ROV2,2*%
%TO.N,Net-(U7-VBAT_OV)*%
X52787500Y-100825000D03*
%TD*%
%TO.P,R6,1*%
%TO.N,Net-(U1-EN)*%
X53362500Y-80000000D03*
%TO.P,R6,2*%
%TO.N,+3V3*%
X50437500Y-80000000D03*
%TD*%
D18*
%TO.P,SW2,*%
%TO.N,*%
X59143000Y-82550000D03*
D19*
X59143000Y-75350000D03*
X56857000Y-82550000D03*
D18*
X56857000Y-75350000D03*
D20*
%TO.P,SW2,1,A*%
%TO.N,Net-(SW2-A)*%
X56150000Y-81150000D03*
%TO.P,SW2,2,B*%
%TO.N,Net-(D5-K)*%
X56150000Y-78250000D03*
%TO.P,SW2,3,C*%
%TO.N,unconnected-(SW2-C-Pad3)*%
X56150000Y-76750000D03*
%TD*%
D21*
%TO.P,D7,1,K*%
%TO.N,Net-(D7-K)*%
X53550000Y-82300000D03*
%TO.P,D7,2,A*%
%TO.N,+SOL*%
X50250000Y-82300000D03*
%TD*%
D22*
%TO.P,MT1,1,AP_SDO/AP_AD0*%
%TO.N,/SPI_SD0_Q_MISO*%
X48100000Y-70100000D03*
%TO.P,MT1,2,RESV*%
%TO.N,GND*%
X47600000Y-70100000D03*
%TO.P,MT1,3,RESV__1*%
X47100000Y-70100000D03*
%TO.P,MT1,4,INT1/INT*%
%TO.N,/ACC_INT*%
X46600000Y-70100000D03*
D23*
%TO.P,MT1,5,VDDIO*%
%TO.N,+3V3*%
X46437500Y-70762500D03*
%TO.P,MT1,6,GND*%
%TO.N,GND*%
X46437500Y-71262500D03*
%TO.P,MT1,7,FSYNC*%
X46437500Y-71762500D03*
D22*
%TO.P,MT1,8,VDD*%
%TO.N,+3V3*%
X46600000Y-72425000D03*
%TO.P,MT1,9,INT2*%
%TO.N,unconnected-(MT1-INT2-Pad9)*%
X47100000Y-72425000D03*
%TO.P,MT1,10,RESV__2*%
%TO.N,GND*%
X47600000Y-72425000D03*
%TO.P,MT1,11,RESV__3*%
X48100000Y-72425000D03*
D23*
%TO.P,MT1,12,AP_CS*%
%TO.N,/SPI_CS*%
X48262500Y-71762500D03*
%TO.P,MT1,13,AP_SCL/AP_SCLK*%
%TO.N,/SPI_SPC*%
X48262500Y-71262500D03*
%TO.P,MT1,14,AP_SDA/AP_SDIO/AP_SDI*%
%TO.N,/SPI_SDI_D_MOSI*%
X48262500Y-70762500D03*
%TD*%
D24*
%TO.P,ROV1,1*%
%TO.N,Net-(U7-VBAT_OV)*%
X55250000Y-102825000D03*
%TO.P,ROV1,2*%
%TO.N,GND*%
X55250000Y-105750000D03*
%TD*%
D16*
%TO.P,C12,1*%
%TO.N,Net-(C11-Pad2)*%
X45875000Y-91100000D03*
%TO.P,C12,2*%
%TO.N,+3V3*%
X48825000Y-91100000D03*
%TD*%
D15*
%TO.P,C3,1*%
%TO.N,+3V3*%
X41400000Y-69655000D03*
%TO.P,C3,2*%
%TO.N,GND*%
X41400000Y-66705000D03*
%TD*%
D25*
%TO.P,R5,1*%
%TO.N,GND*%
X50137500Y-75100000D03*
%TO.P,R5,2*%
%TO.N,Net-(D3-K)*%
X53062500Y-75100000D03*
%TD*%
D17*
%TO.P,R7,1*%
%TO.N,GND*%
X53062500Y-72800000D03*
%TO.P,R7,2*%
%TO.N,Net-(D4-K)*%
X50137500Y-72800000D03*
%TD*%
D15*
%TO.P,C8,1*%
%TO.N,Net-(C11-Pad2)*%
X53737500Y-90175000D03*
%TO.P,C8,2*%
%TO.N,+BATT*%
X53737500Y-87225000D03*
%TD*%
D26*
%TO.P,C4,1*%
%TO.N,+3V3*%
X44200000Y-71905000D03*
%TO.P,C4,2*%
%TO.N,GND*%
X41250000Y-71905000D03*
%TD*%
%TO.P,C15,1*%
%TO.N,Net-(C11-Pad2)*%
X58825000Y-92500000D03*
%TO.P,C15,2*%
%TO.N,Net-(U7-VOC_SAMP)*%
X55875000Y-92500000D03*
%TD*%
D27*
%TO.P,TP2,1,1*%
%TO.N,GND*%
X43200000Y-94400000D03*
%TD*%
D12*
%TO.P,R8,1*%
%TO.N,Net-(C2-Pad1)*%
X58600000Y-69595000D03*
%TO.P,R8,2*%
%TO.N,/BOOT*%
X58600000Y-66670000D03*
%TD*%
D25*
%TO.P,R9,1*%
%TO.N,Net-(J1-CC2)*%
X50037500Y-106810000D03*
%TO.P,R9,2*%
%TO.N,GND*%
X52962500Y-106810000D03*
%TD*%
D26*
%TO.P,C9,1*%
%TO.N,Net-(U1-EN)*%
X53575000Y-77700000D03*
%TO.P,C9,2*%
%TO.N,GND*%
X50625000Y-77700000D03*
%TD*%
D28*
%TO.P,L2,1,1*%
%TO.N,Net-(SW2-A)*%
X51025000Y-92200000D03*
%TO.P,L2,2,2*%
%TO.N,Net-(U7-LBOOST)*%
X54175000Y-92200000D03*
%TD*%
D21*
%TO.P,D5,1,K*%
%TO.N,Net-(D5-K)*%
X53550000Y-84650000D03*
%TO.P,D5,2,A*%
%TO.N,+5VUSB*%
X50250000Y-84650000D03*
%TD*%
D29*
%TO.P,J2,1,Pin_1*%
%TO.N,+BATT*%
X48250000Y-76050000D03*
D30*
%TO.P,J2,2,Pin_2*%
%TO.N,GND*%
X48250000Y-78550000D03*
%TD*%
D24*
%TO.P,ROUT2,1*%
%TO.N,Net-(U7-VOUT_SET)*%
X57800000Y-99600000D03*
%TO.P,ROUT2,2*%
%TO.N,Net-(U7-VRDIV)*%
X57800000Y-102525000D03*
%TD*%
D31*
%TO.P,JP1,1,A*%
%TO.N,Net-(D7-K)*%
X56000000Y-84650000D03*
D32*
%TO.P,JP1,2,B*%
%TO.N,Net-(D5-K)*%
X57300000Y-84650000D03*
%TD*%
D33*
%TO.P,J1,A1,GND*%
%TO.N,GND*%
X47325000Y-99600000D03*
%TO.P,J1,A4,VBUS*%
%TO.N,+5VUSB*%
X47325000Y-100400000D03*
D34*
%TO.P,J1,A5,CC1*%
%TO.N,Net-(J1-CC1)*%
X47325000Y-101550000D03*
%TO.P,J1,A6,D+*%
%TO.N,/USB_D+*%
X47325000Y-102550000D03*
%TO.P,J1,A7,D-*%
%TO.N,/USB_D-*%
X47325000Y-103050000D03*
%TO.P,J1,A8,SBU1*%
%TO.N,unconnected-(J1-SBU1-PadA8)*%
X47325000Y-104050000D03*
D33*
%TO.P,J1,A9,VBUS*%
%TO.N,+5VUSB*%
X47325000Y-105200000D03*
%TO.P,J1,A12,GND*%
%TO.N,GND*%
X47325000Y-106000000D03*
%TO.P,J1,B1,GND*%
X47325000Y-106000000D03*
%TO.P,J1,B4,VBUS*%
%TO.N,+5VUSB*%
X47325000Y-105200000D03*
D34*
%TO.P,J1,B5,CC2*%
%TO.N,Net-(J1-CC2)*%
X47325000Y-104550000D03*
%TO.P,J1,B6,D+*%
%TO.N,/USB_D+*%
X47325000Y-103550000D03*
%TO.P,J1,B7,D-*%
%TO.N,/USB_D-*%
X47325000Y-102050000D03*
%TO.P,J1,B8,SBU2*%
%TO.N,unconnected-(J1-SBU2-PadB8)*%
X47325000Y-101050000D03*
D33*
%TO.P,J1,B9,VBUS*%
%TO.N,+5VUSB*%
X47325000Y-100400000D03*
%TO.P,J1,B12,GND*%
%TO.N,GND*%
X47325000Y-99600000D03*
D35*
%TO.P,J1,S1,SHIELD*%
%TO.N,unconnected-(J1-SHIELD-PadS1)_2*%
X46750000Y-97690000D03*
%TO.N,unconnected-(J1-SHIELD-PadS1)_3*%
X42820000Y-97690000D03*
%TO.N,unconnected-(J1-SHIELD-PadS1)*%
X46750000Y-107910000D03*
%TO.N,unconnected-(J1-SHIELD-PadS1)_1*%
X42820000Y-107910000D03*
%TD*%
D29*
%TO.P,J4,1,Pin_1*%
%TO.N,+SOL*%
X48250000Y-84450000D03*
D30*
%TO.P,J4,2,Pin_2*%
%TO.N,GND*%
X48250000Y-86950000D03*
%TD*%
D36*
%TO.P,U1,1,GND*%
%TO.N,GND*%
X41250000Y-46450000D03*
%TO.P,U1,2,3V3*%
%TO.N,+3V3*%
X41250000Y-47720000D03*
%TO.P,U1,3,EN*%
%TO.N,Net-(U1-EN)*%
X41250000Y-48990000D03*
%TO.P,U1,4,IO4*%
%TO.N,unconnected-(U1-IO4-Pad4)*%
X41250000Y-50260000D03*
%TO.P,U1,5,IO5*%
%TO.N,unconnected-(U1-IO5-Pad5)*%
X41250000Y-51530000D03*
%TO.P,U1,6,IO6*%
%TO.N,unconnected-(U1-IO6-Pad6)*%
X41250000Y-52800000D03*
%TO.P,U1,7,IO7*%
%TO.N,unconnected-(U1-IO7-Pad7)*%
X41250000Y-54070000D03*
%TO.P,U1,8,IO15*%
%TO.N,unconnected-(U1-IO15-Pad8)*%
X41250000Y-55340000D03*
%TO.P,U1,9,IO16*%
%TO.N,unconnected-(U1-IO16-Pad9)*%
X41250000Y-56610000D03*
%TO.P,U1,10,IO17*%
%TO.N,unconnected-(U1-IO17-Pad10)*%
X41250000Y-57880000D03*
%TO.P,U1,11,IO18*%
%TO.N,unconnected-(U1-IO18-Pad11)*%
X41250000Y-59150000D03*
%TO.P,U1,12,IO8*%
%TO.N,unconnected-(U1-IO8-Pad12)*%
X41250000Y-60420000D03*
%TO.P,U1,13,IO19*%
%TO.N,/USB_D-*%
X41250000Y-61690000D03*
%TO.P,U1,14,IO20*%
%TO.N,/USB_D+*%
X41250000Y-62960000D03*
D37*
%TO.P,U1,15,IO3*%
%TO.N,/ACC_INT*%
X43015000Y-64210000D03*
%TO.P,U1,16,IO46*%
%TO.N,GND*%
X44285000Y-64210000D03*
%TO.P,U1,17,IO9*%
%TO.N,unconnected-(U1-IO9-Pad17)*%
X45555000Y-64210000D03*
%TO.P,U1,18,IO10*%
%TO.N,/SPI_SD0_Q_MISO*%
X46825000Y-64210000D03*
%TO.P,U1,19,IO11*%
%TO.N,/SPI_SDI_D_MOSI*%
X48095000Y-64210000D03*
%TO.P,U1,20,IO12*%
%TO.N,/SPI_SPC*%
X49365000Y-64210000D03*
%TO.P,U1,21,IO13*%
%TO.N,/SPI_CS*%
X50635000Y-64210000D03*
%TO.P,U1,22,IO14*%
%TO.N,/LED_R*%
X51905000Y-64210000D03*
%TO.P,U1,23,IO21*%
%TO.N,unconnected-(U1-IO21-Pad23)*%
X53175000Y-64210000D03*
%TO.P,U1,24,IO47*%
%TO.N,/LED_G*%
X54445000Y-64210000D03*
%TO.P,U1,25,IO48*%
%TO.N,unconnected-(U1-IO48-Pad25)*%
X55715000Y-64210000D03*
%TO.P,U1,26,IO45*%
%TO.N,unconnected-(U1-IO45-Pad26)*%
X56985000Y-64210000D03*
D36*
%TO.P,U1,27,IO0*%
%TO.N,/BOOT*%
X58750000Y-62960000D03*
%TO.P,U1,28,IO35*%
%TO.N,unconnected-(U1-IO35-Pad28)*%
X58750000Y-61690000D03*
%TO.P,U1,29,IO36*%
%TO.N,unconnected-(U1-IO36-Pad29)*%
X58750000Y-60420000D03*
%TO.P,U1,30,IO37*%
%TO.N,unconnected-(U1-IO37-Pad30)*%
X58750000Y-59150000D03*
%TO.P,U1,31,IO38*%
%TO.N,unconnected-(U1-IO38-Pad31)*%
X58750000Y-57880000D03*
%TO.P,U1,32,IO39*%
%TO.N,unconnected-(U1-IO39-Pad32)*%
X58750000Y-56610000D03*
%TO.P,U1,33,IO40*%
%TO.N,unconnected-(U1-IO40-Pad33)*%
X58750000Y-55340000D03*
%TO.P,U1,34,IO41*%
%TO.N,unconnected-(U1-IO41-Pad34)*%
X58750000Y-54070000D03*
%TO.P,U1,35,IO42*%
%TO.N,unconnected-(U1-IO42-Pad35)*%
X58750000Y-52800000D03*
%TO.P,U1,36,RXD0*%
%TO.N,unconnected-(U1-RXD0-Pad36)*%
X58750000Y-51530000D03*
%TO.P,U1,37,TXD0*%
%TO.N,unconnected-(U1-TXD0-Pad37)*%
X58750000Y-50260000D03*
%TO.P,U1,38,IO2*%
%TO.N,unconnected-(U1-IO2-Pad38)*%
X58750000Y-48990000D03*
%TO.P,U1,39,IO1*%
%TO.N,unconnected-(U1-IO1-Pad39)*%
X58750000Y-47720000D03*
%TO.P,U1,40,GND__1*%
%TO.N,GND*%
X58750000Y-46450000D03*
D38*
%TO.P,U1,41_1,GND__2*%
X48500000Y-54170000D03*
%TO.P,U1,41_2,GND__3*%
X47100000Y-54170000D03*
%TO.P,U1,41_3,GND__4*%
X49900000Y-54170000D03*
%TO.P,U1,41_4,GND__5*%
X47100000Y-55570000D03*
%TO.P,U1,41_5,GND__6*%
X48500000Y-55570000D03*
%TO.P,U1,41_6,GND__7*%
X49900000Y-55570000D03*
%TO.P,U1,41_7,GND__8*%
X47100000Y-52770000D03*
%TO.P,U1,41_8,GND__9*%
X48500000Y-52770000D03*
%TO.P,U1,41_9,GND__10*%
X49900000Y-52770000D03*
D39*
%TO.P,U1,41_10*%
%TO.N,N/C*%
X48500000Y-53470000D03*
%TO.P,U1,41_11*%
X47100000Y-53470000D03*
%TO.P,U1,41_12*%
X49900000Y-53470000D03*
%TO.P,U1,41_13*%
X47100000Y-54870000D03*
%TO.P,U1,41_14*%
X48500000Y-54870000D03*
%TO.P,U1,41_15*%
X49900000Y-54870000D03*
%TO.P,U1,41_16*%
X47800000Y-52770000D03*
%TO.P,U1,41_17*%
X49200000Y-52770000D03*
%TO.P,U1,41_18*%
X47800000Y-54170000D03*
%TO.P,U1,41_19*%
X49200000Y-54170000D03*
%TO.P,U1,41_20*%
X47800000Y-55570000D03*
%TO.P,U1,41_21*%
X49200000Y-55570000D03*
%TD*%
D16*
%TO.P,C11,1*%
%TO.N,Net-(D5-K)*%
X46450000Y-93500000D03*
%TO.P,C11,2*%
%TO.N,Net-(C11-Pad2)*%
X49400000Y-93500000D03*
%TD*%
D26*
%TO.P,C2,1*%
%TO.N,Net-(C2-Pad1)*%
X56650000Y-69300000D03*
%TO.P,C2,2*%
%TO.N,GND*%
X53700000Y-69300000D03*
%TD*%
%TO.P,C14,1*%
%TO.N,Net-(C11-Pad2)*%
X58825000Y-90000000D03*
%TO.P,C14,2*%
%TO.N,Net-(U7-VOC_SAMP)*%
X55875000Y-90000000D03*
%TD*%
D15*
%TO.P,C13,1*%
%TO.N,GND*%
X50000000Y-98485000D03*
%TO.P,C13,2*%
%TO.N,Net-(U7-VREF_SAMP)*%
X50000000Y-95535000D03*
%TD*%
D27*
%TO.P,TP1,1,1*%
%TO.N,+3V3*%
X42000000Y-91600000D03*
%TD*%
D40*
%TO.P,U7,1,VSS*%
%TO.N,Net-(C11-Pad2)*%
X52193750Y-96300000D03*
%TO.P,U7,2,VIN_DC*%
%TO.N,Net-(SW2-A)*%
X52193750Y-96800000D03*
%TO.P,U7,3,VOC_SAMP*%
%TO.N,Net-(U7-VOC_SAMP)*%
X52193750Y-97300000D03*
%TO.P,U7,4,VREF_SAMP*%
%TO.N,Net-(U7-VREF_SAMP)*%
X52193750Y-97800000D03*
%TO.P,U7,5,~{EN}*%
%TO.N,GND*%
X52193750Y-98300000D03*
D41*
%TO.P,U7,6,VOUT_EN*%
%TO.N,Net-(U7-VOC_SAMP)*%
X52881250Y-98987500D03*
%TO.P,U7,7,VBAT_OV*%
%TO.N,Net-(U7-VBAT_OV)*%
X53381250Y-98987500D03*
%TO.P,U7,8,VRDIV*%
%TO.N,Net-(U7-VRDIV)*%
X53881250Y-98987500D03*
%TO.P,U7,9,VSS*%
%TO.N,Net-(C11-Pad2)*%
X54381250Y-98987500D03*
%TO.P,U7,10,OK_HYST*%
%TO.N,GND*%
X54881250Y-98987500D03*
D40*
%TO.P,U7,11,OK_PROG*%
X55568750Y-98300000D03*
%TO.P,U7,12,VOUT_SET*%
%TO.N,Net-(U7-VOUT_SET)*%
X55568750Y-97800000D03*
%TO.P,U7,13,VBAT_OK*%
%TO.N,unconnected-(U7-VBAT_OK-Pad13)*%
X55568750Y-97300000D03*
%TO.P,U7,14,VOUT*%
%TO.N,+3V3*%
X55568750Y-96800000D03*
%TO.P,U7,15,VSS*%
%TO.N,Net-(C11-Pad2)*%
X55568750Y-96300000D03*
D41*
%TO.P,U7,16,LBUCK*%
%TO.N,Net-(U7-LBUCK)*%
X54881250Y-95612500D03*
%TO.P,U7,17,VSS*%
%TO.N,Net-(C11-Pad2)*%
X54381250Y-95612500D03*
%TO.P,U7,18,VBAT*%
%TO.N,+BATT*%
X53881250Y-95612500D03*
%TO.P,U7,19,VSTOR*%
%TO.N,Net-(U7-VOC_SAMP)*%
X53381250Y-95612500D03*
%TO.P,U7,20,LBOOST*%
%TO.N,Net-(U7-LBOOST)*%
X52881250Y-95612500D03*
D42*
%TO.P,U7,21,VSS*%
%TO.N,Net-(C11-Pad2)*%
X53881250Y-97300000D03*
%TD*%
D43*
%TO.P,U2,1,D1+*%
%TO.N,/USB_D+*%
X49700000Y-102600000D03*
%TO.P,U2,2,D1-*%
%TO.N,/USB_D-*%
X49700000Y-102100000D03*
%TO.P,U2,3,GND*%
%TO.N,GND*%
X49700000Y-101600000D03*
%TO.P,U2,4,D2+*%
%TO.N,+5VUSB*%
X49700000Y-101100000D03*
%TO.P,U2,5,D2-*%
%TO.N,Net-(U2-D2-)*%
X49700000Y-100600000D03*
%TO.P,U2,6,NC*%
X48930000Y-100600000D03*
%TO.P,U2,7,NC*%
%TO.N,+5VUSB*%
X48930000Y-101100000D03*
%TO.P,U2,8,GND*%
%TO.N,GND*%
X48930000Y-101600000D03*
%TO.P,U2,9,NC*%
%TO.N,/USB_D-*%
X48930000Y-102100000D03*
%TO.P,U2,10,NC*%
%TO.N,/USB_D+*%
X48930000Y-102600000D03*
%TD*%
D25*
%TO.P,R4,1*%
%TO.N,Net-(J1-CC1)*%
X49250000Y-104410000D03*
%TO.P,R4,2*%
%TO.N,GND*%
X52175000Y-104410000D03*
%TD*%
D44*
%TO.N,GND*%
X46350000Y-76900000D03*
X47734314Y-95065686D03*
X46000000Y-54150000D03*
X56300000Y-99335000D03*
X41500000Y-73250000D03*
X48422525Y-106972475D03*
X52200000Y-99000000D03*
X51000000Y-56500000D03*
X46000000Y-56500000D03*
X45250000Y-99245000D03*
X55250000Y-107100000D03*
X41250000Y-65000000D03*
X43300000Y-46600000D03*
X52500000Y-102535000D03*
X41400000Y-95200000D03*
X48500000Y-51800000D03*
X51300000Y-69300000D03*
X49000000Y-72700000D03*
X49000000Y-99645000D03*
X58850000Y-86200000D03*
X46000000Y-51800000D03*
X48500000Y-56500000D03*
X51000000Y-54150000D03*
X47250000Y-69200000D03*
X44625000Y-62375000D03*
X45400000Y-71700000D03*
X46000000Y-86650000D03*
X51000000Y-51800000D03*
X48000000Y-66000000D03*
X56500000Y-46500000D03*
%TO.N,+BATT*%
X49400000Y-77300000D03*
X52000000Y-79900000D03*
%TO.N,Net-(C11-Pad2)*%
X48400000Y-93400000D03*
X46800000Y-92050000D03*
%TO.N,Net-(SW2-A)*%
X52100000Y-90950000D03*
X55500000Y-82400000D03*
%TO.N,Net-(D5-K)*%
X47200000Y-88800000D03*
X53800000Y-85800000D03*
%TO.N,+3V3*%
X44450000Y-68200000D03*
X43300000Y-48190000D03*
X44000000Y-91000000D03*
X58050000Y-96500000D03*
X48400000Y-92200000D03*
%TO.N,Net-(U7-VOC_SAMP)*%
X50588429Y-96660000D03*
X51501248Y-99750002D03*
X53581249Y-94399955D03*
%TO.N,/USB_D+*%
X42750000Y-62750000D03*
X51044975Y-102344975D03*
%TO.N,Net-(J1-CC1)*%
X45745611Y-103146667D03*
X50250000Y-105145000D03*
%TO.N,/USB_D-*%
X43250000Y-62000000D03*
X51493750Y-100895000D03*
%TO.N,Net-(U1-EN)*%
X44470000Y-50730000D03*
X54981250Y-75878750D03*
%TD*%
D45*
%TO.N,GND*%
X50137500Y-75100000D02*
X50600000Y-75100000D01*
X50600000Y-75100000D02*
X52600000Y-73100000D01*
X47769669Y-95030331D02*
X47556727Y-95243273D01*
X43300000Y-46600000D02*
X43150000Y-46450000D01*
X43700000Y-66915000D02*
X43490000Y-66705000D01*
X56550000Y-46450000D02*
X56500000Y-46500000D01*
X58850000Y-87965000D02*
X58850000Y-86200000D01*
X53062500Y-72800000D02*
X54300000Y-72800000D01*
X48675000Y-67600000D02*
X48675000Y-66675000D01*
X49900000Y-52770000D02*
X49900000Y-52750000D01*
X44285000Y-62715000D02*
X44285000Y-64210000D01*
D46*
X50325000Y-101353120D02*
X50325000Y-100220000D01*
D47*
X47100000Y-70100000D02*
X47100000Y-69350000D01*
D45*
X55250000Y-106600000D02*
X54750000Y-107100000D01*
X43490000Y-66705000D02*
X41400000Y-66705000D01*
X53362500Y-107100000D02*
X52962500Y-106700000D01*
X56066250Y-99335000D02*
X56300000Y-99335000D01*
D47*
X47100000Y-69350000D02*
X47250000Y-69200000D01*
X47100000Y-70100000D02*
X47600000Y-70100000D01*
D46*
X52175000Y-102860000D02*
X52500000Y-102535000D01*
D45*
X47460050Y-106010000D02*
X47325000Y-106010000D01*
X55250000Y-106600000D02*
X55750000Y-107100000D01*
X44625000Y-62375000D02*
X44285000Y-62715000D01*
X47950000Y-86650000D02*
X48250000Y-86950000D01*
X55250000Y-107100000D02*
X58050000Y-107100000D01*
X47100000Y-54170000D02*
X46080000Y-54170000D01*
X48500000Y-55570000D02*
X48500000Y-56500000D01*
X49900000Y-54170000D02*
X50980000Y-54170000D01*
X50625000Y-77700000D02*
X49775000Y-78550000D01*
D46*
X55568750Y-98300000D02*
X55568750Y-98837500D01*
D47*
X45400000Y-71700000D02*
X45837500Y-71262500D01*
D45*
X49650000Y-99645000D02*
X49700000Y-99595000D01*
X48675000Y-66675000D02*
X48000000Y-66000000D01*
X49000000Y-99645000D02*
X49650000Y-99645000D01*
X52175000Y-104300000D02*
X52175000Y-105912500D01*
D46*
X50078120Y-101600000D02*
X50325000Y-101353120D01*
D45*
X46930000Y-55570000D02*
X47100000Y-55570000D01*
X49700000Y-98485000D02*
X49700000Y-99595000D01*
D47*
X48100000Y-72300000D02*
X47600000Y-72300000D01*
D45*
X40975000Y-72725000D02*
X40975000Y-71610000D01*
D46*
X50325000Y-100220000D02*
X49852500Y-99747500D01*
D45*
X50980000Y-54170000D02*
X51000000Y-54150000D01*
X41500000Y-73250000D02*
X40975000Y-72725000D01*
X58050000Y-107100000D02*
X55750000Y-107100000D01*
D46*
X49852500Y-99747500D02*
X49750000Y-99645000D01*
X48930000Y-101600000D02*
X49700000Y-101600000D01*
D45*
X47769669Y-95030331D02*
X47734314Y-95065686D01*
D46*
X55718750Y-98987500D02*
X55731250Y-99000000D01*
D47*
X48225000Y-72425000D02*
X48100000Y-72300000D01*
X49000000Y-72700000D02*
X48725000Y-72425000D01*
D45*
X55250000Y-107100000D02*
X54750000Y-107100000D01*
X46000000Y-86650000D02*
X47950000Y-86650000D01*
X52934830Y-69300000D02*
X51300000Y-69300000D01*
D46*
X54881250Y-98987500D02*
X55718750Y-98987500D01*
D45*
X41400000Y-66705000D02*
X41250000Y-66555000D01*
D47*
X52193750Y-98993750D02*
X52200000Y-99000000D01*
D45*
X47700000Y-78250000D02*
X46350000Y-76900000D01*
X54300000Y-72800000D02*
X54900000Y-72200000D01*
X49775000Y-78550000D02*
X48250000Y-78550000D01*
X46100000Y-56550000D02*
X46100000Y-56400000D01*
X52175000Y-105912500D02*
X52962500Y-106700000D01*
X55250000Y-107100000D02*
X55500000Y-107100000D01*
X54900000Y-71265170D02*
X52934830Y-69300000D01*
X47100000Y-52770000D02*
X46230000Y-51900000D01*
X54750000Y-107100000D02*
X53362500Y-107100000D01*
X43150000Y-46450000D02*
X41050000Y-46450000D01*
X47556727Y-95243273D02*
X44043273Y-95243273D01*
X48250000Y-78250000D02*
X47700000Y-78250000D01*
X55568750Y-98837500D02*
X56066250Y-99335000D01*
X50020000Y-55570000D02*
X49900000Y-55570000D01*
X42200000Y-94400000D02*
X41400000Y-95200000D01*
X46100000Y-56400000D02*
X46930000Y-55570000D01*
D46*
X55568750Y-98837500D02*
X55731250Y-99000000D01*
X47325000Y-99695000D02*
X46875000Y-99245000D01*
D45*
X48500000Y-52770000D02*
X48500000Y-51850000D01*
X54900000Y-72370000D02*
X54900000Y-71265170D01*
D47*
X45837500Y-71262500D02*
X46437500Y-71262500D01*
D45*
X55250000Y-105750000D02*
X55250000Y-106600000D01*
D46*
X46875000Y-99245000D02*
X45250000Y-99245000D01*
D45*
X51050000Y-56600000D02*
X50020000Y-55570000D01*
D46*
X49700000Y-101600000D02*
X50078120Y-101600000D01*
D45*
X43200000Y-94400000D02*
X42200000Y-94400000D01*
X49700000Y-99595000D02*
X49852500Y-99747500D01*
X55500000Y-107100000D02*
X54750000Y-107100000D01*
X46080000Y-54170000D02*
X46050000Y-54200000D01*
D47*
X52193750Y-98300000D02*
X52193750Y-98993750D01*
D45*
X49900000Y-52750000D02*
X50950000Y-51700000D01*
X55750000Y-107100000D02*
X55500000Y-107100000D01*
X41250000Y-66555000D02*
X41250000Y-65000000D01*
D47*
X46437500Y-71262500D02*
X46437500Y-71762500D01*
D45*
X44043273Y-95243273D02*
X43200000Y-94400000D01*
D47*
X48725000Y-72425000D02*
X48225000Y-72425000D01*
D46*
X52175000Y-104300000D02*
X52175000Y-102860000D01*
D45*
X46230000Y-51900000D02*
X46000000Y-51900000D01*
X48422525Y-106972475D02*
X47460050Y-106010000D01*
X58550000Y-46450000D02*
X56550000Y-46450000D01*
%TO.N,+BATT*%
X53762500Y-87250000D02*
X55215000Y-87250000D01*
X55215000Y-87250000D02*
X55775000Y-87810000D01*
D46*
X56450000Y-94100000D02*
X54871154Y-94100000D01*
D45*
X48250000Y-76150000D02*
X49400000Y-77300000D01*
X52000000Y-79900000D02*
X52200000Y-80100000D01*
D46*
X57250000Y-88850000D02*
X57250000Y-93300000D01*
D45*
X52200000Y-85687500D02*
X53737500Y-87225000D01*
X53737500Y-87225000D02*
X53762500Y-87250000D01*
D46*
X57250000Y-93300000D02*
X56450000Y-94100000D01*
X54871154Y-94100000D02*
X53881250Y-95089904D01*
X53881250Y-95089904D02*
X53881250Y-95612500D01*
D45*
X52200000Y-80100000D02*
X52200000Y-85687500D01*
X48250000Y-76050000D02*
X48250000Y-76150000D01*
D46*
X55900000Y-87500000D02*
X57250000Y-88850000D01*
D45*
%TO.N,Net-(C2-Pad1)*%
X56400000Y-69670000D02*
X58325000Y-69670000D01*
X58325000Y-69670000D02*
X58400000Y-69595000D01*
X58800000Y-69995000D02*
X58400000Y-69595000D01*
X58800000Y-72670000D02*
X58800000Y-69995000D01*
%TO.N,Net-(C11-Pad2)*%
X50000000Y-91078122D02*
X50000000Y-92900000D01*
D47*
X55568750Y-96300000D02*
X55518750Y-96350000D01*
X54831250Y-96350000D02*
X53881250Y-97300000D01*
D46*
X54381250Y-97800000D02*
X53881250Y-97300000D01*
D45*
X50000000Y-92900000D02*
X49400000Y-93500000D01*
D47*
X51900000Y-93935000D02*
X52193750Y-94228750D01*
D45*
X45875000Y-91127544D02*
X46850000Y-92102544D01*
D47*
X53881250Y-97300000D02*
X54381250Y-96800000D01*
D45*
X50928122Y-90150000D02*
X50000000Y-91078122D01*
X53737500Y-90490622D02*
X53000000Y-91228122D01*
X59200000Y-95531250D02*
X59200000Y-92875000D01*
X53737500Y-90175000D02*
X53712500Y-90150000D01*
D47*
X52931250Y-96350000D02*
X53881250Y-97300000D01*
D45*
X53712500Y-90150000D02*
X50928122Y-90150000D01*
X51900000Y-93451472D02*
X51900000Y-93935000D01*
D47*
X52193750Y-94228750D02*
X52193750Y-96300000D01*
X55518750Y-96350000D02*
X54831250Y-96350000D01*
D45*
X56068750Y-95700000D02*
X59031250Y-95700000D01*
X53000000Y-91228122D02*
X53000000Y-92351472D01*
X46852544Y-92102544D02*
X46800000Y-92050000D01*
X48400000Y-93400000D02*
X49300000Y-93400000D01*
X55568750Y-96200000D02*
X56068750Y-95700000D01*
X59031250Y-95700000D02*
X59200000Y-95531250D01*
X59200000Y-92875000D02*
X58825000Y-92500000D01*
X58825000Y-90000000D02*
X58825000Y-92500000D01*
X46850000Y-92102544D02*
X46852544Y-92102544D01*
D47*
X52243750Y-96350000D02*
X52931250Y-96350000D01*
D45*
X45875000Y-91100000D02*
X45875000Y-91127544D01*
D47*
X54381250Y-96800000D02*
X54381250Y-95612500D01*
D45*
X53737500Y-90175000D02*
X53737500Y-90490622D01*
X53000000Y-92351472D02*
X51900000Y-93451472D01*
X49300000Y-93400000D02*
X49400000Y-93500000D01*
D47*
X52193750Y-96300000D02*
X52243750Y-96350000D01*
D46*
X54381250Y-98987500D02*
X54381250Y-97800000D01*
D47*
%TO.N,Net-(SW2-A)*%
X51294239Y-96410000D02*
X51294239Y-94201739D01*
D45*
X56150000Y-81750000D02*
X56150000Y-81150000D01*
D47*
X52193750Y-96800000D02*
X51684239Y-96800000D01*
X50850000Y-93757500D02*
X50850000Y-92200000D01*
D45*
X52100000Y-90950000D02*
X50850000Y-92200000D01*
D47*
X51684239Y-96800000D02*
X51294239Y-96410000D01*
D45*
X55500000Y-82400000D02*
X56150000Y-81750000D01*
D47*
X51294239Y-94201739D02*
X50850000Y-93757500D01*
D45*
%TO.N,Net-(D5-K)*%
X44850000Y-90153122D02*
X46203122Y-88800000D01*
X53800000Y-84900000D02*
X53550000Y-84650000D01*
X57607000Y-81550000D02*
X57607000Y-84343000D01*
X57300000Y-85650000D02*
X57300000Y-84650000D01*
X55120000Y-85855000D02*
X57095000Y-85855000D01*
X44850000Y-92046878D02*
X44850000Y-90153122D01*
X53550000Y-84285000D02*
X55120000Y-85855000D01*
X57100000Y-79200000D02*
X57100000Y-81043000D01*
X46203122Y-88800000D02*
X47200000Y-88800000D01*
X53800000Y-85800000D02*
X53800000Y-84900000D01*
X46303122Y-93500000D02*
X44850000Y-92046878D01*
X57607000Y-84343000D02*
X57300000Y-84650000D01*
X57095000Y-85855000D02*
X57300000Y-85650000D01*
X57100000Y-81043000D02*
X57607000Y-81550000D01*
X46450000Y-93500000D02*
X46303122Y-93500000D01*
X56150000Y-78250000D02*
X57100000Y-79200000D01*
%TO.N,+3V3*%
X43700000Y-69865000D02*
X43490000Y-69655000D01*
D46*
X46590000Y-72415000D02*
X46600000Y-72425000D01*
D45*
X42000000Y-91600000D02*
X43400000Y-91600000D01*
X44450000Y-69115000D02*
X44432500Y-69132500D01*
D46*
X57981250Y-97825000D02*
X56956250Y-96800000D01*
D45*
X44450000Y-68200000D02*
X44450000Y-69115000D01*
X47711522Y-80000000D02*
X45100000Y-77388478D01*
X48650000Y-90500000D02*
X51500000Y-87650000D01*
X43700000Y-71405000D02*
X44200000Y-71905000D01*
X58050000Y-97756250D02*
X58050000Y-96500000D01*
X50437500Y-80000000D02*
X47711522Y-80000000D01*
X51500000Y-87650000D02*
X51500000Y-81062500D01*
X45100000Y-73900000D02*
X44200000Y-73000000D01*
X48500000Y-90750000D02*
X48500000Y-92100000D01*
X42830000Y-47720000D02*
X41050000Y-47720000D01*
D46*
X56956250Y-96800000D02*
X55568750Y-96800000D01*
D45*
X43490000Y-69655000D02*
X41400000Y-69655000D01*
X45100000Y-77388478D02*
X45100000Y-73900000D01*
X48500000Y-92100000D02*
X48400000Y-92200000D01*
D47*
X45217500Y-70762500D02*
X44200000Y-71780000D01*
D46*
X44275000Y-72415000D02*
X46590000Y-72415000D01*
D45*
X43700000Y-69865000D02*
X43700000Y-71405000D01*
X45725000Y-67600000D02*
X45725000Y-67840000D01*
X43300000Y-48190000D02*
X42830000Y-47720000D01*
D47*
X46437500Y-70762500D02*
X45217500Y-70762500D01*
D45*
X50437500Y-80000000D02*
X51500000Y-81062500D01*
X57981250Y-97825000D02*
X58050000Y-97756250D01*
X45725000Y-67840000D02*
X44432500Y-69132500D01*
X44200000Y-73000000D02*
X44200000Y-71905000D01*
X43400000Y-91600000D02*
X44000000Y-91000000D01*
X44432500Y-69132500D02*
X43700000Y-69865000D01*
D47*
%TO.N,Net-(U7-VREF_SAMP)*%
X50884744Y-97610000D02*
X51074744Y-97800000D01*
X49700000Y-96700000D02*
X50610000Y-97610000D01*
X51741864Y-97800000D02*
X52193750Y-97800000D01*
X50610000Y-97610000D02*
X50884744Y-97610000D01*
X49700000Y-95535000D02*
X49700000Y-96700000D01*
X51074744Y-97800000D02*
X52193750Y-97800000D01*
D46*
%TO.N,Net-(U7-VOC_SAMP)*%
X53581249Y-94399955D02*
X53381250Y-94599954D01*
D47*
X52881250Y-99500000D02*
X52881250Y-98987500D01*
X52731250Y-99650000D02*
X52881250Y-99500000D01*
X51228429Y-97300000D02*
X52193750Y-97300000D01*
D46*
X53581249Y-94399955D02*
X54481204Y-93500000D01*
X54875000Y-93500000D02*
X55875000Y-92500000D01*
D45*
X55875000Y-90000000D02*
X55875000Y-92500000D01*
D46*
X54481204Y-93500000D02*
X54875000Y-93500000D01*
D47*
X51511246Y-99650000D02*
X52731250Y-99650000D01*
X50588429Y-96660000D02*
X51228429Y-97300000D01*
D46*
X53381250Y-94599954D02*
X53381250Y-95612500D01*
D45*
%TO.N,Net-(D3-K)*%
X55750000Y-71125220D02*
X55750000Y-73274780D01*
X55400000Y-68495000D02*
X55400000Y-70775220D01*
X55750000Y-73274780D02*
X53924780Y-75100000D01*
X55400000Y-70775220D02*
X55750000Y-71125220D01*
X53675000Y-66770000D02*
X55400000Y-68495000D01*
X53924780Y-75100000D02*
X53062500Y-75100000D01*
%TO.N,/LED_G*%
X54445000Y-64210000D02*
X54445000Y-65240000D01*
X54445000Y-65240000D02*
X55975000Y-66770000D01*
X55975000Y-66770000D02*
X56600000Y-66770000D01*
%TO.N,/LED_R*%
X51905000Y-67665000D02*
X51600000Y-67970000D01*
X51905000Y-64210000D02*
X51905000Y-67665000D01*
%TO.N,Net-(D4-K)*%
X50137500Y-71532500D02*
X50900000Y-70770000D01*
X50137500Y-73100000D02*
X50137500Y-71532500D01*
D46*
%TO.N,+5VUSB*%
X49700000Y-101100000D02*
X48930000Y-101100000D01*
X45000000Y-103424695D02*
X46785305Y-105210000D01*
X47325000Y-100495000D02*
X46700940Y-100495000D01*
D45*
X48115000Y-100410000D02*
X48205000Y-100500000D01*
D46*
X48600000Y-95800000D02*
X48600000Y-99055050D01*
X48551880Y-101100000D02*
X48930000Y-101100000D01*
X46785305Y-105210000D02*
X47325000Y-105210000D01*
X48600000Y-99055050D02*
X48300000Y-99355050D01*
D45*
X47600000Y-89731371D02*
X50250000Y-87081371D01*
X47325000Y-100410000D02*
X48115000Y-100410000D01*
D46*
X45000000Y-102195940D02*
X45000000Y-103424695D01*
X46700940Y-100495000D02*
X45000000Y-102195940D01*
D45*
X48600000Y-94800000D02*
X47600000Y-93800000D01*
X48600000Y-95800000D02*
X48600000Y-94800000D01*
X50250000Y-87081371D02*
X50250000Y-84650000D01*
D46*
X48300000Y-100848120D02*
X48551880Y-101100000D01*
X48300000Y-99355050D02*
X48300000Y-100848120D01*
D45*
X47600000Y-93800000D02*
X47600000Y-89731371D01*
%TO.N,Net-(D7-K)*%
X55650000Y-84035000D02*
X55750000Y-84035000D01*
X53550000Y-81935000D02*
X55650000Y-84035000D01*
%TO.N,+SOL*%
X48250000Y-83935000D02*
X50250000Y-81935000D01*
X48250000Y-84450000D02*
X48250000Y-83935000D01*
D46*
%TO.N,/USB_D+*%
X50779950Y-102610000D02*
X49650000Y-102610000D01*
X48344773Y-102600000D02*
X48930000Y-102600000D01*
X48294773Y-102550000D02*
X48344773Y-102600000D01*
X48930000Y-102633120D02*
X48013120Y-103550000D01*
D47*
X42175001Y-62960000D02*
X41050000Y-62960000D01*
D46*
X51044975Y-102344975D02*
X50779950Y-102610000D01*
D47*
X42800000Y-62800000D02*
X42335001Y-62800000D01*
D46*
X48930000Y-102600000D02*
X48930000Y-102633120D01*
D47*
X42335001Y-62800000D02*
X42175001Y-62960000D01*
D46*
X48013120Y-103550000D02*
X47325000Y-103550000D01*
X47325000Y-102550000D02*
X48294773Y-102550000D01*
X49700000Y-102600000D02*
X48930000Y-102600000D01*
%TO.N,Net-(J1-CC2)*%
X47325000Y-104550000D02*
X47961262Y-104550000D01*
X48337500Y-105290456D02*
X49857044Y-106810000D01*
X47961262Y-104550000D02*
X48337500Y-104926238D01*
X49857044Y-106810000D02*
X50037500Y-106810000D01*
X48337500Y-104926238D02*
X48337500Y-105290456D01*
%TO.N,Net-(J1-CC1)*%
X50250000Y-104645000D02*
X50015000Y-104410000D01*
X50250000Y-105145000D02*
X50250000Y-104645000D01*
X46390000Y-101550000D02*
X47325000Y-101550000D01*
X50015000Y-104410000D02*
X49250000Y-104410000D01*
X45745611Y-102194389D02*
X46390000Y-101550000D01*
X45745611Y-103146667D02*
X45745611Y-102194389D01*
%TO.N,/USB_D-*%
X49700000Y-102100000D02*
X48930000Y-102100000D01*
X47325000Y-102050000D02*
X46646880Y-102050000D01*
X46636880Y-103050000D02*
X47325000Y-103050000D01*
X46400000Y-102296880D02*
X46400000Y-102813120D01*
D47*
X42870337Y-61690000D02*
X41230000Y-61690000D01*
X43280337Y-62100000D02*
X42870337Y-61690000D01*
D46*
X46400000Y-102813120D02*
X46636880Y-103050000D01*
X49700000Y-102100000D02*
X50300000Y-102100000D01*
X48551880Y-102100000D02*
X48930000Y-102100000D01*
X48501880Y-102050000D02*
X48551880Y-102100000D01*
X51493750Y-101051300D02*
X51493750Y-100785000D01*
X46646880Y-102050000D02*
X46400000Y-102296880D01*
X51238700Y-101161300D02*
X51493750Y-101161300D01*
X50300000Y-102100000D02*
X51238700Y-101161300D01*
X47325000Y-102050000D02*
X48501880Y-102050000D01*
%TO.N,Net-(U7-LBOOST)*%
X54000000Y-92200000D02*
X52881250Y-93318750D01*
X52881250Y-93318750D02*
X52881250Y-95612500D01*
%TO.N,Net-(U7-LBUCK)*%
X55556250Y-94675000D02*
X57981250Y-94675000D01*
X54881250Y-95612500D02*
X54881250Y-95350000D01*
X54881250Y-95350000D02*
X55556250Y-94675000D01*
D47*
%TO.N,/SPI_CS*%
X48262500Y-71762500D02*
X49137500Y-71762500D01*
X50400000Y-66200000D02*
X50635000Y-65965000D01*
X50635000Y-65965000D02*
X50635000Y-64210000D01*
X49137500Y-71762500D02*
X49587500Y-71312500D01*
X49587500Y-71312500D02*
X49587500Y-71304682D01*
X49587500Y-71304682D02*
X50400000Y-70492182D01*
X50400000Y-70492182D02*
X50400000Y-66200000D01*
%TO.N,/ACC_INT*%
X43015000Y-65160000D02*
X43015000Y-64210000D01*
X46600000Y-66300000D02*
X45700000Y-65400000D01*
X46600000Y-70100000D02*
X46600000Y-66300000D01*
X43255000Y-65400000D02*
X43015000Y-65160000D01*
X45700000Y-65400000D02*
X43255000Y-65400000D01*
%TO.N,/SPI_SDI_D_MOSI*%
X48537500Y-70762500D02*
X49600000Y-69700000D01*
X48095000Y-64995000D02*
X48095000Y-64210000D01*
X48262500Y-70762500D02*
X48537500Y-70762500D01*
X49600000Y-69700000D02*
X49600000Y-66500000D01*
X49600000Y-66500000D02*
X48095000Y-64995000D01*
%TO.N,/SPI_SD0_Q_MISO*%
X47200000Y-68100000D02*
X48100000Y-69000000D01*
X46825000Y-65525000D02*
X47200000Y-65900000D01*
X48100000Y-69000000D02*
X48100000Y-70100000D01*
X47200000Y-65900000D02*
X47200000Y-68100000D01*
X46825000Y-64210000D02*
X46825000Y-65525000D01*
%TO.N,/SPI_SPC*%
X48262500Y-71262500D02*
X48837500Y-71262500D01*
X50000000Y-70100000D02*
X50000000Y-65800000D01*
X48837500Y-71262500D02*
X50000000Y-70100000D01*
X49365000Y-65165000D02*
X49365000Y-64210000D01*
X50000000Y-65800000D02*
X49365000Y-65165000D01*
D45*
%TO.N,/BOOT*%
X58600000Y-63110000D02*
X58600000Y-66470000D01*
X58550000Y-62960000D02*
X58750000Y-62960000D01*
X58600000Y-66470000D02*
X58550000Y-66520000D01*
X58750000Y-62960000D02*
X58600000Y-63110000D01*
%TO.N,Net-(U7-VOUT_SET)*%
X59125000Y-100925000D02*
X59125000Y-103134378D01*
X57800000Y-99600000D02*
X59125000Y-100925000D01*
D46*
X56450000Y-98158654D02*
X56450000Y-98385000D01*
X56091346Y-97800000D02*
X56450000Y-98158654D01*
D45*
X59125000Y-103134378D02*
X58084378Y-104175000D01*
D46*
X56450000Y-98385000D02*
X57665000Y-99600000D01*
D45*
X58084378Y-104175000D02*
X58050000Y-104175000D01*
D46*
X55568750Y-97800000D02*
X56091346Y-97800000D01*
%TO.N,Net-(U7-VRDIV)*%
X53881250Y-98987500D02*
X53881250Y-99787500D01*
X53881250Y-99787500D02*
X54918750Y-100825000D01*
D45*
X55481250Y-100825000D02*
X56825000Y-100825000D01*
D46*
X54918750Y-100825000D02*
X55481250Y-100825000D01*
D45*
X56825000Y-100825000D02*
X58131250Y-102131250D01*
X58131250Y-102131250D02*
X58131250Y-102525000D01*
D46*
%TO.N,Net-(U7-VBAT_OV)*%
X53381250Y-98987500D02*
X53381250Y-100000000D01*
D45*
X52556250Y-100825000D02*
X54556250Y-102825000D01*
X54556250Y-102825000D02*
X55250000Y-102825000D01*
D46*
X53381250Y-100000000D02*
X52556250Y-100825000D01*
%TO.N,Net-(U2-D2-)*%
X49700000Y-100600000D02*
X48930000Y-100600000D01*
D45*
%TO.N,Net-(U1-EN)*%
X42730000Y-48990000D02*
X41050000Y-48990000D01*
X54981250Y-76728750D02*
X54981250Y-75878750D01*
X53362500Y-77912500D02*
X53575000Y-77700000D01*
X44470000Y-50730000D02*
X42730000Y-48990000D01*
X54010000Y-77700000D02*
X54981250Y-76728750D01*
X53362500Y-80000000D02*
X53362500Y-77912500D01*
X53575000Y-77700000D02*
X54010000Y-77700000D01*
%TD*%
M02*
