%TF.GenerationSoftware,KiCad,Pcbnew,8.0.5*%
%TF.CreationDate,2024-09-18T17:55:33-04:00*%
%TF.ProjectId,cadence sensor,63616465-6e63-4652-9073-656e736f722e,rev?*%
%TF.SameCoordinates,Original*%
%TF.FileFunction,Legend,Bot*%
%TF.FilePolarity,Positive*%
%FSLAX46Y46*%
G04 Gerber Fmt 4.6, Leading zero omitted, Abs format (unit mm)*
G04 Created by KiCad (PCBNEW 8.0.5) date 2024-09-18 17:55:33*
%MOMM*%
%LPD*%
G01*
G04 APERTURE LIST*
%ADD10C,0.150000*%
G04 APERTURE END LIST*
D10*
X54559875Y-47743922D02*
X54559875Y-48315350D01*
X55559875Y-48029636D02*
X54559875Y-48029636D01*
X55559875Y-49077255D02*
X55036065Y-49077255D01*
X55036065Y-49077255D02*
X54940827Y-49029636D01*
X54940827Y-49029636D02*
X54893208Y-48934398D01*
X54893208Y-48934398D02*
X54893208Y-48743922D01*
X54893208Y-48743922D02*
X54940827Y-48648684D01*
X55512256Y-49077255D02*
X55559875Y-48982017D01*
X55559875Y-48982017D02*
X55559875Y-48743922D01*
X55559875Y-48743922D02*
X55512256Y-48648684D01*
X55512256Y-48648684D02*
X55417017Y-48601065D01*
X55417017Y-48601065D02*
X55321779Y-48601065D01*
X55321779Y-48601065D02*
X55226541Y-48648684D01*
X55226541Y-48648684D02*
X55178922Y-48743922D01*
X55178922Y-48743922D02*
X55178922Y-48982017D01*
X55178922Y-48982017D02*
X55131303Y-49077255D01*
X54893208Y-49553446D02*
X55559875Y-49553446D01*
X54988446Y-49553446D02*
X54940827Y-49601065D01*
X54940827Y-49601065D02*
X54893208Y-49696303D01*
X54893208Y-49696303D02*
X54893208Y-49839160D01*
X54893208Y-49839160D02*
X54940827Y-49934398D01*
X54940827Y-49934398D02*
X55036065Y-49982017D01*
X55036065Y-49982017D02*
X55559875Y-49982017D01*
X55559875Y-50458208D02*
X54893208Y-50458208D01*
X54988446Y-50458208D02*
X54940827Y-50505827D01*
X54940827Y-50505827D02*
X54893208Y-50601065D01*
X54893208Y-50601065D02*
X54893208Y-50743922D01*
X54893208Y-50743922D02*
X54940827Y-50839160D01*
X54940827Y-50839160D02*
X55036065Y-50886779D01*
X55036065Y-50886779D02*
X55559875Y-50886779D01*
X55036065Y-50886779D02*
X54940827Y-50934398D01*
X54940827Y-50934398D02*
X54893208Y-51029636D01*
X54893208Y-51029636D02*
X54893208Y-51172493D01*
X54893208Y-51172493D02*
X54940827Y-51267732D01*
X54940827Y-51267732D02*
X55036065Y-51315351D01*
X55036065Y-51315351D02*
X55559875Y-51315351D01*
X55559875Y-52220112D02*
X55036065Y-52220112D01*
X55036065Y-52220112D02*
X54940827Y-52172493D01*
X54940827Y-52172493D02*
X54893208Y-52077255D01*
X54893208Y-52077255D02*
X54893208Y-51886779D01*
X54893208Y-51886779D02*
X54940827Y-51791541D01*
X55512256Y-52220112D02*
X55559875Y-52124874D01*
X55559875Y-52124874D02*
X55559875Y-51886779D01*
X55559875Y-51886779D02*
X55512256Y-51791541D01*
X55512256Y-51791541D02*
X55417017Y-51743922D01*
X55417017Y-51743922D02*
X55321779Y-51743922D01*
X55321779Y-51743922D02*
X55226541Y-51791541D01*
X55226541Y-51791541D02*
X55178922Y-51886779D01*
X55178922Y-51886779D02*
X55178922Y-52124874D01*
X55178922Y-52124874D02*
X55131303Y-52220112D01*
X54893208Y-52601065D02*
X55559875Y-52839160D01*
X54893208Y-53077255D02*
X55559875Y-52839160D01*
X55559875Y-52839160D02*
X55797970Y-52743922D01*
X55797970Y-52743922D02*
X55845589Y-52696303D01*
X55845589Y-52696303D02*
X55893208Y-52601065D01*
X55464636Y-54791541D02*
X55512256Y-54743922D01*
X55512256Y-54743922D02*
X55559875Y-54601065D01*
X55559875Y-54601065D02*
X55559875Y-54505827D01*
X55559875Y-54505827D02*
X55512256Y-54362970D01*
X55512256Y-54362970D02*
X55417017Y-54267732D01*
X55417017Y-54267732D02*
X55321779Y-54220113D01*
X55321779Y-54220113D02*
X55131303Y-54172494D01*
X55131303Y-54172494D02*
X54988446Y-54172494D01*
X54988446Y-54172494D02*
X54797970Y-54220113D01*
X54797970Y-54220113D02*
X54702732Y-54267732D01*
X54702732Y-54267732D02*
X54607494Y-54362970D01*
X54607494Y-54362970D02*
X54559875Y-54505827D01*
X54559875Y-54505827D02*
X54559875Y-54601065D01*
X54559875Y-54601065D02*
X54607494Y-54743922D01*
X54607494Y-54743922D02*
X54655113Y-54791541D01*
X55559875Y-55220113D02*
X54559875Y-55220113D01*
X55559875Y-55648684D02*
X55036065Y-55648684D01*
X55036065Y-55648684D02*
X54940827Y-55601065D01*
X54940827Y-55601065D02*
X54893208Y-55505827D01*
X54893208Y-55505827D02*
X54893208Y-55362970D01*
X54893208Y-55362970D02*
X54940827Y-55267732D01*
X54940827Y-55267732D02*
X54988446Y-55220113D01*
X55559875Y-56124875D02*
X54559875Y-56124875D01*
X55559875Y-56553446D02*
X55036065Y-56553446D01*
X55036065Y-56553446D02*
X54940827Y-56505827D01*
X54940827Y-56505827D02*
X54893208Y-56410589D01*
X54893208Y-56410589D02*
X54893208Y-56267732D01*
X54893208Y-56267732D02*
X54940827Y-56172494D01*
X54940827Y-56172494D02*
X54988446Y-56124875D01*
X55559875Y-57458208D02*
X55036065Y-57458208D01*
X55036065Y-57458208D02*
X54940827Y-57410589D01*
X54940827Y-57410589D02*
X54893208Y-57315351D01*
X54893208Y-57315351D02*
X54893208Y-57124875D01*
X54893208Y-57124875D02*
X54940827Y-57029637D01*
X55512256Y-57458208D02*
X55559875Y-57362970D01*
X55559875Y-57362970D02*
X55559875Y-57124875D01*
X55559875Y-57124875D02*
X55512256Y-57029637D01*
X55512256Y-57029637D02*
X55417017Y-56982018D01*
X55417017Y-56982018D02*
X55321779Y-56982018D01*
X55321779Y-56982018D02*
X55226541Y-57029637D01*
X55226541Y-57029637D02*
X55178922Y-57124875D01*
X55178922Y-57124875D02*
X55178922Y-57362970D01*
X55178922Y-57362970D02*
X55131303Y-57458208D01*
X54893208Y-57791542D02*
X54893208Y-58172494D01*
X54559875Y-57934399D02*
X55417017Y-57934399D01*
X55417017Y-57934399D02*
X55512256Y-57982018D01*
X55512256Y-57982018D02*
X55559875Y-58077256D01*
X55559875Y-58077256D02*
X55559875Y-58172494D01*
X55559875Y-58505828D02*
X54559875Y-58505828D01*
X54940827Y-58505828D02*
X54893208Y-58601066D01*
X54893208Y-58601066D02*
X54893208Y-58791542D01*
X54893208Y-58791542D02*
X54940827Y-58886780D01*
X54940827Y-58886780D02*
X54988446Y-58934399D01*
X54988446Y-58934399D02*
X55083684Y-58982018D01*
X55083684Y-58982018D02*
X55369398Y-58982018D01*
X55369398Y-58982018D02*
X55464636Y-58934399D01*
X55464636Y-58934399D02*
X55512256Y-58886780D01*
X55512256Y-58886780D02*
X55559875Y-58791542D01*
X55559875Y-58791542D02*
X55559875Y-58601066D01*
X55559875Y-58601066D02*
X55512256Y-58505828D01*
X55559875Y-59839161D02*
X55036065Y-59839161D01*
X55036065Y-59839161D02*
X54940827Y-59791542D01*
X54940827Y-59791542D02*
X54893208Y-59696304D01*
X54893208Y-59696304D02*
X54893208Y-59505828D01*
X54893208Y-59505828D02*
X54940827Y-59410590D01*
X55512256Y-59839161D02*
X55559875Y-59743923D01*
X55559875Y-59743923D02*
X55559875Y-59505828D01*
X55559875Y-59505828D02*
X55512256Y-59410590D01*
X55512256Y-59410590D02*
X55417017Y-59362971D01*
X55417017Y-59362971D02*
X55321779Y-59362971D01*
X55321779Y-59362971D02*
X55226541Y-59410590D01*
X55226541Y-59410590D02*
X55178922Y-59505828D01*
X55178922Y-59505828D02*
X55178922Y-59743923D01*
X55178922Y-59743923D02*
X55131303Y-59839161D01*
X55559875Y-60315352D02*
X54893208Y-60315352D01*
X55083684Y-60315352D02*
X54988446Y-60362971D01*
X54988446Y-60362971D02*
X54940827Y-60410590D01*
X54940827Y-60410590D02*
X54893208Y-60505828D01*
X54893208Y-60505828D02*
X54893208Y-60601066D01*
X57074580Y-48458207D02*
X57122200Y-48410588D01*
X57122200Y-48410588D02*
X57169819Y-48267731D01*
X57169819Y-48267731D02*
X57169819Y-48172493D01*
X57169819Y-48172493D02*
X57122200Y-48029636D01*
X57122200Y-48029636D02*
X57026961Y-47934398D01*
X57026961Y-47934398D02*
X56931723Y-47886779D01*
X56931723Y-47886779D02*
X56741247Y-47839160D01*
X56741247Y-47839160D02*
X56598390Y-47839160D01*
X56598390Y-47839160D02*
X56407914Y-47886779D01*
X56407914Y-47886779D02*
X56312676Y-47934398D01*
X56312676Y-47934398D02*
X56217438Y-48029636D01*
X56217438Y-48029636D02*
X56169819Y-48172493D01*
X56169819Y-48172493D02*
X56169819Y-48267731D01*
X56169819Y-48267731D02*
X56217438Y-48410588D01*
X56217438Y-48410588D02*
X56265057Y-48458207D01*
X57169819Y-49315350D02*
X56646009Y-49315350D01*
X56646009Y-49315350D02*
X56550771Y-49267731D01*
X56550771Y-49267731D02*
X56503152Y-49172493D01*
X56503152Y-49172493D02*
X56503152Y-48982017D01*
X56503152Y-48982017D02*
X56550771Y-48886779D01*
X57122200Y-49315350D02*
X57169819Y-49220112D01*
X57169819Y-49220112D02*
X57169819Y-48982017D01*
X57169819Y-48982017D02*
X57122200Y-48886779D01*
X57122200Y-48886779D02*
X57026961Y-48839160D01*
X57026961Y-48839160D02*
X56931723Y-48839160D01*
X56931723Y-48839160D02*
X56836485Y-48886779D01*
X56836485Y-48886779D02*
X56788866Y-48982017D01*
X56788866Y-48982017D02*
X56788866Y-49220112D01*
X56788866Y-49220112D02*
X56741247Y-49315350D01*
X57169819Y-50220112D02*
X56169819Y-50220112D01*
X57122200Y-50220112D02*
X57169819Y-50124874D01*
X57169819Y-50124874D02*
X57169819Y-49934398D01*
X57169819Y-49934398D02*
X57122200Y-49839160D01*
X57122200Y-49839160D02*
X57074580Y-49791541D01*
X57074580Y-49791541D02*
X56979342Y-49743922D01*
X56979342Y-49743922D02*
X56693628Y-49743922D01*
X56693628Y-49743922D02*
X56598390Y-49791541D01*
X56598390Y-49791541D02*
X56550771Y-49839160D01*
X56550771Y-49839160D02*
X56503152Y-49934398D01*
X56503152Y-49934398D02*
X56503152Y-50124874D01*
X56503152Y-50124874D02*
X56550771Y-50220112D01*
X57122200Y-51077255D02*
X57169819Y-50982017D01*
X57169819Y-50982017D02*
X57169819Y-50791541D01*
X57169819Y-50791541D02*
X57122200Y-50696303D01*
X57122200Y-50696303D02*
X57026961Y-50648684D01*
X57026961Y-50648684D02*
X56646009Y-50648684D01*
X56646009Y-50648684D02*
X56550771Y-50696303D01*
X56550771Y-50696303D02*
X56503152Y-50791541D01*
X56503152Y-50791541D02*
X56503152Y-50982017D01*
X56503152Y-50982017D02*
X56550771Y-51077255D01*
X56550771Y-51077255D02*
X56646009Y-51124874D01*
X56646009Y-51124874D02*
X56741247Y-51124874D01*
X56741247Y-51124874D02*
X56836485Y-50648684D01*
X56503152Y-51553446D02*
X57169819Y-51553446D01*
X56598390Y-51553446D02*
X56550771Y-51601065D01*
X56550771Y-51601065D02*
X56503152Y-51696303D01*
X56503152Y-51696303D02*
X56503152Y-51839160D01*
X56503152Y-51839160D02*
X56550771Y-51934398D01*
X56550771Y-51934398D02*
X56646009Y-51982017D01*
X56646009Y-51982017D02*
X57169819Y-51982017D01*
X57122200Y-52886779D02*
X57169819Y-52791541D01*
X57169819Y-52791541D02*
X57169819Y-52601065D01*
X57169819Y-52601065D02*
X57122200Y-52505827D01*
X57122200Y-52505827D02*
X57074580Y-52458208D01*
X57074580Y-52458208D02*
X56979342Y-52410589D01*
X56979342Y-52410589D02*
X56693628Y-52410589D01*
X56693628Y-52410589D02*
X56598390Y-52458208D01*
X56598390Y-52458208D02*
X56550771Y-52505827D01*
X56550771Y-52505827D02*
X56503152Y-52601065D01*
X56503152Y-52601065D02*
X56503152Y-52791541D01*
X56503152Y-52791541D02*
X56550771Y-52886779D01*
X57122200Y-53696303D02*
X57169819Y-53601065D01*
X57169819Y-53601065D02*
X57169819Y-53410589D01*
X57169819Y-53410589D02*
X57122200Y-53315351D01*
X57122200Y-53315351D02*
X57026961Y-53267732D01*
X57026961Y-53267732D02*
X56646009Y-53267732D01*
X56646009Y-53267732D02*
X56550771Y-53315351D01*
X56550771Y-53315351D02*
X56503152Y-53410589D01*
X56503152Y-53410589D02*
X56503152Y-53601065D01*
X56503152Y-53601065D02*
X56550771Y-53696303D01*
X56550771Y-53696303D02*
X56646009Y-53743922D01*
X56646009Y-53743922D02*
X56741247Y-53743922D01*
X56741247Y-53743922D02*
X56836485Y-53267732D01*
X57122200Y-54886780D02*
X57169819Y-54982018D01*
X57169819Y-54982018D02*
X57169819Y-55172494D01*
X57169819Y-55172494D02*
X57122200Y-55267732D01*
X57122200Y-55267732D02*
X57026961Y-55315351D01*
X57026961Y-55315351D02*
X56979342Y-55315351D01*
X56979342Y-55315351D02*
X56884104Y-55267732D01*
X56884104Y-55267732D02*
X56836485Y-55172494D01*
X56836485Y-55172494D02*
X56836485Y-55029637D01*
X56836485Y-55029637D02*
X56788866Y-54934399D01*
X56788866Y-54934399D02*
X56693628Y-54886780D01*
X56693628Y-54886780D02*
X56646009Y-54886780D01*
X56646009Y-54886780D02*
X56550771Y-54934399D01*
X56550771Y-54934399D02*
X56503152Y-55029637D01*
X56503152Y-55029637D02*
X56503152Y-55172494D01*
X56503152Y-55172494D02*
X56550771Y-55267732D01*
X57122200Y-56124875D02*
X57169819Y-56029637D01*
X57169819Y-56029637D02*
X57169819Y-55839161D01*
X57169819Y-55839161D02*
X57122200Y-55743923D01*
X57122200Y-55743923D02*
X57026961Y-55696304D01*
X57026961Y-55696304D02*
X56646009Y-55696304D01*
X56646009Y-55696304D02*
X56550771Y-55743923D01*
X56550771Y-55743923D02*
X56503152Y-55839161D01*
X56503152Y-55839161D02*
X56503152Y-56029637D01*
X56503152Y-56029637D02*
X56550771Y-56124875D01*
X56550771Y-56124875D02*
X56646009Y-56172494D01*
X56646009Y-56172494D02*
X56741247Y-56172494D01*
X56741247Y-56172494D02*
X56836485Y-55696304D01*
X56503152Y-56601066D02*
X57169819Y-56601066D01*
X56598390Y-56601066D02*
X56550771Y-56648685D01*
X56550771Y-56648685D02*
X56503152Y-56743923D01*
X56503152Y-56743923D02*
X56503152Y-56886780D01*
X56503152Y-56886780D02*
X56550771Y-56982018D01*
X56550771Y-56982018D02*
X56646009Y-57029637D01*
X56646009Y-57029637D02*
X57169819Y-57029637D01*
X57122200Y-57458209D02*
X57169819Y-57553447D01*
X57169819Y-57553447D02*
X57169819Y-57743923D01*
X57169819Y-57743923D02*
X57122200Y-57839161D01*
X57122200Y-57839161D02*
X57026961Y-57886780D01*
X57026961Y-57886780D02*
X56979342Y-57886780D01*
X56979342Y-57886780D02*
X56884104Y-57839161D01*
X56884104Y-57839161D02*
X56836485Y-57743923D01*
X56836485Y-57743923D02*
X56836485Y-57601066D01*
X56836485Y-57601066D02*
X56788866Y-57505828D01*
X56788866Y-57505828D02*
X56693628Y-57458209D01*
X56693628Y-57458209D02*
X56646009Y-57458209D01*
X56646009Y-57458209D02*
X56550771Y-57505828D01*
X56550771Y-57505828D02*
X56503152Y-57601066D01*
X56503152Y-57601066D02*
X56503152Y-57743923D01*
X56503152Y-57743923D02*
X56550771Y-57839161D01*
X57169819Y-58458209D02*
X57122200Y-58362971D01*
X57122200Y-58362971D02*
X57074580Y-58315352D01*
X57074580Y-58315352D02*
X56979342Y-58267733D01*
X56979342Y-58267733D02*
X56693628Y-58267733D01*
X56693628Y-58267733D02*
X56598390Y-58315352D01*
X56598390Y-58315352D02*
X56550771Y-58362971D01*
X56550771Y-58362971D02*
X56503152Y-58458209D01*
X56503152Y-58458209D02*
X56503152Y-58601066D01*
X56503152Y-58601066D02*
X56550771Y-58696304D01*
X56550771Y-58696304D02*
X56598390Y-58743923D01*
X56598390Y-58743923D02*
X56693628Y-58791542D01*
X56693628Y-58791542D02*
X56979342Y-58791542D01*
X56979342Y-58791542D02*
X57074580Y-58743923D01*
X57074580Y-58743923D02*
X57122200Y-58696304D01*
X57122200Y-58696304D02*
X57169819Y-58601066D01*
X57169819Y-58601066D02*
X57169819Y-58458209D01*
X57169819Y-59220114D02*
X56503152Y-59220114D01*
X56693628Y-59220114D02*
X56598390Y-59267733D01*
X56598390Y-59267733D02*
X56550771Y-59315352D01*
X56550771Y-59315352D02*
X56503152Y-59410590D01*
X56503152Y-59410590D02*
X56503152Y-59505828D01*
X56503152Y-60505829D02*
X57169819Y-60743924D01*
X57169819Y-60743924D02*
X56503152Y-60982019D01*
X57169819Y-61886781D02*
X57169819Y-61315353D01*
X57169819Y-61601067D02*
X56169819Y-61601067D01*
X56169819Y-61601067D02*
X56312676Y-61505829D01*
X56312676Y-61505829D02*
X56407914Y-61410591D01*
X56407914Y-61410591D02*
X56455533Y-61315353D01*
M02*
