M48
; DRILL file {KiCad 8.0.5} date 2024-09-18T17:55:29-0400
; FORMAT={-:-/ absolute / inch / decimal}
; #@! TF.CreationDate,2024-09-18T17:55:29-04:00
; #@! TF.GenerationSoftware,Kicad,Pcbnew,8.0.5
; #@! TF.FileFunction,MixedPlating,1,2
FMAT,2
INCH
; #@! TA.AperFunction,Plated,PTH,ComponentDrill
T1C0.0079
; #@! TA.AperFunction,Plated,PTH,ViaDrill
T2C0.0118
; #@! TA.AperFunction,Plated,PTH,ComponentDrill
T3C0.0394
; #@! TA.AperFunction,NonPlated,NPTH,ComponentDrill
T4C0.0256
; #@! TA.AperFunction,NonPlated,NPTH,ComponentDrill
T5C0.0276
%
G90
G05
T1
X1.8543Y-2.1051
X1.8543Y-2.1602
X1.8819Y-2.0776
X1.8819Y-2.1327
X1.8819Y-2.1878
X1.9094Y-2.1051
X1.9094Y-2.1602
X1.937Y-2.0776
X1.937Y-2.1327
X1.937Y-2.1878
X1.9646Y-2.1051
X1.9646Y-2.1602
T2
X1.624Y-2.5591
X1.6299Y-3.748
X1.6339Y-2.8839
X1.6831Y-2.4705
X1.7028Y-2.4409
X1.7047Y-1.8346
X1.7047Y-1.8972
X1.7323Y-3.5827
X1.75Y-2.685
X1.7508Y-1.9972
X1.7569Y-2.4557
X1.7815Y-3.9073
X1.7874Y-2.8228
X1.801Y-4.0609
X1.811Y-2.0394
X1.811Y-2.1319
X1.811Y-2.2244
X1.811Y-3.4114
X1.8248Y-3.0276
X1.8425Y-3.624
X1.8583Y-3.4961
X1.8602Y-2.7244
X1.8793Y-3.7427
X1.8898Y-2.5984
X1.9055Y-3.6299
X1.9055Y-3.6772
X1.9064Y-4.2115
X1.9094Y-2.0394
X1.9094Y-2.2244
X1.9291Y-2.8622
X1.9291Y-3.923
X1.9449Y-3.0433
X1.9783Y-4.1396
X1.9917Y-3.8055
X2.0079Y-2.0394
X2.0079Y-2.1319
X2.0079Y-2.2244
X2.0096Y-4.0293
X2.0197Y-2.7283
X2.0273Y-3.9722
X2.0276Y-3.9272
X2.0472Y-3.1457
X2.0512Y-3.5807
X2.0551Y-3.8976
X2.0669Y-4.0368
X2.1095Y-3.7165
X2.1181Y-3.378
X2.1646Y-2.9874
X2.1752Y-4.2165
X2.185Y-3.2441
X2.2165Y-3.9108
X2.2244Y-1.8307
X2.2854Y-3.7992
X2.3169Y-3.3937
T3
X1.8996Y-2.9941
X1.8996Y-3.0925
X1.8996Y-3.3248
X1.8996Y-3.4232
T4
X1.8209Y-3.9335
X1.8209Y-4.161
T5
X2.2835Y-3.0512
X2.2835Y-3.1654
M30
